<?xml version="1.0" encoding="utf-8"?>
<!-- Generator: Adobe Illustrator 20.1.0, SVG Export Plug-In . SVG Version: 6.00 Build 0)  -->
<svg version="1.1" id="Layer_1" xmlns="http://www.w3.org/2000/svg" xmlns:xlink="http://www.w3.org/1999/xlink" x="0px" y="0px"
	 viewBox="0 0 70.9 300" style="enable-background:new 0 0 70.9 300;" xml:space="preserve">
<style type="text/css">
	.st0{fill:#ED6F1F;}
	.st1{fill:#EA5818;}
	.st2{fill:#E84916;}
	.st3{fill:#EF7B28;}
	.st4{fill:#629C30;}
	.st5{fill:#8CBE27;}
	.st6{fill:#B2B313;}
	.st7{fill:#F5A268;}
	.st8{fill:#271111;}
</style>
<path class="st0" d="M39.4,71c-2.1-1-4.4-1.4-6.8-1.3c-2.1-4.6-7-7.8-12.5-5.7c-3.1,1.2-5.3,3.4-7,5.9C10,70.2,7,71.5,5,73.9
	c-5.4,6-5.2,15.8-4.8,23.2c0.6,9.3,1,18.5,1.5,27.8c0.3,4.6,0.6,9.3,0.9,13.9c0.4,5.4,0.1,11.3,2.4,16.3c0.2,0.4,0.4,0.8,0.5,1.2
	c0.3,6.1,0.8,12.2,1.5,18.3c1.3,9.9,0.6,19.8,1.4,29.7c0.9,10.5,4,20.3,4.3,30.9c0.1,4.8-0.2,9.7,0,14.5c0.1,4.1-1.1,9.8,0.8,13.6
	c1.8,3.8,3.8,7.3,5.3,11.2c0.3,6.5,1.5,12.9,5.1,19.4c3.1,5.6,11.6,5.6,15.5,1.1l0.3-0.3c3.3-3.7,3.1-7.8,1.3-10.9
	c-1.4-5.4-0.5-11,0.5-16.5c1.5-8.2,3.4-16.1,3.8-24.5c0.9-19.7,3-39.3,4-59c1-19.2,2.3-38.3,0.5-57.5C48.4,110,57.9,80.2,39.4,71z"
	/>
<path class="st1" d="M44.5,65.4c-2.4,1-8.9-2.3-11.4-3c-7.6-2.1-19.7,2.3-14,11.9c1.6,2.7,5,3.4,7.8,2.4c0.4,0,1.1-0.1,1.9,0
	c2,0.2,4.3,1.6,6.2,2.3c3.6,1.3,7.2,2.3,10.9,2.1c3.6,4.4,3.7,14.7,3.9,19.5c0.4,8.9-1.5,17.2-3.1,25.8c-1.6,8.5-4.2,17.5-4.4,26.1
	c-0.1,3.8,0.5,7.7-0.1,11.5c-0.7,3.8-1.6,7.7-2.5,11.5c-4,17.8-7.4,34.8-7.9,53.1c-0.3,9.3-2.5,18.7-3.9,27.8
	c-1.2,7.6-4.1,17-3.1,24.7c0.3,2.5,1.8,4.6,3.8,6c-0.8,1.3-1.5,2.6-2.2,4c-1.3,2.8,1.2,5.2,4,4.6c4.3-0.9,7.2-1.6,10.2-5.2
	c2.6-3.3,4.1-7.2,5.4-11.1c1.3-4.1,1.8-8.5,2.5-12.7c0.8-4.8,2.5-9.5,3.7-14.2c2.5-9.3,3.4-18.2,2.8-27.8c-0.6-10.3,0.8-19.7,2.4-30
	c1.7-10.7,3.4-21.3,4.3-32c0.9-10.5,1.6-20.7,3.6-31.1c1.7-9,3.5-17.5,3.5-26.7c0-4.9-0.3-10.7-1.9-15.8c-1.3-7.3-3.9-14.3-8.6-19.7
	C55.1,65.7,48.8,63.5,44.5,65.4z"/>
<path class="st2" d="M46.8,70.7c-1.6,0.7-2.5,3.1-0.9,4.2c1.3,0.9,2.2,2.4,2.9,4.1c-3,0.5-6.2,0.3-9.2,0.2c-3.1,0-8.9,1.4-11.3-0.8
	c-3-2.8-7.7,1.3-5.4,4.7c5.6,8.4,19.6,10.3,29,8.8c0.4,2.9,0.7,5.8,1.1,8.7c2.4,15.3-1.7,31,6.5,44.9c1.1,1.9,3.7,0.9,4.3-0.8
	c1.3-3.7,0.1-7,0-10.7c-0.2-4.5-0.6-9-0.7-13.6c-0.1-8.5-1.1-17.1-2.2-25.6C60.2,89.1,56.8,66.5,46.8,70.7z"/>
<path class="st3" d="M14.4,136.1c0.5,2.7,0.3,6.3,0.2,9.3c-0.2,6.2,0.3,12.3,0.2,18.5c-0.2,13.1-2.7,26.5-1.1,39.6
	c1.6,13,0.4,25.9,3.7,38.7c2,7.8,3.8,21.3,12.1,24.8c2.5,1.1,5-1,4.3-3.7c-2.5-9.4-2.4-19.9-3.4-29.6c-0.7-6.6,0.3-13.1,0.8-19.7
	c0.5-6.7,0.3-13.3,0.9-19.9c1.1-13.4,4.8-26.9,4.3-40.4c-0.5-11.9,7.1-24.4-3.2-34.1C22.1,109.2,6.8,124.9,14.4,136.1z"/>
<path class="st4" d="M47.4,16.3c-1.7,4-2.2,8.2-4.1,12.1c-0.8,1.7-1.7,3.3-2.6,4.9c-0.2-5-1.2-10.2-2-15.2
	c-0.6-4.4-0.3-7.9-4.8-10.4c-3.6-2-8.1,1.1-7.9,5.1c0,0.3,0,0.7,0,1c-0.9-1.8-2-3.5-3.1-5.2c-3-4.4-10.3-2.1-9.9,3.3
	c0.1,1.7,0.4,3.4,0.8,5c-1,1-1.5,2.3-1.3,3.9c1,5.9,3.1,11.2,5.2,16.7c1.8,5,2.2,10.2,5,14.8c0.5,0.7,1,1.3,1.7,1.7
	c0.3,1.4,0.7,2.7,1.2,4.1c1.3,3.8,5.9,3.2,7.4,0.5c0.2,0,0.5,0,0.8,0c2.5-0.2,4.5,1.1,6.5,2.4c0.6,0.7,1.3,1.3,2.1,2
	c4,3.5,11.2,0.6,10.6-5.1c-0.1-0.8-0.2-1.6-0.3-2.3c-0.4-3.3-2.9-5.4-5.7-5.7c-0.5-0.7-0.8-1.5-0.7-2.4c0.4-2.6,1.7-5,3-7.3
	c1.6-2.9,3.4-5.7,4.9-8.7c1.6-3.3,2-6.8,3.3-10.2C60.2,14.7,50.4,9.5,47.4,16.3z"/>
<path class="st5" d="M28.9,11.3c-3.8,8.1-4.8,16.8-5.2,25.7c-0.4,7.4,0.4,16,5.8,21.5c2.9,3,7.9-1.4,5.5-4.8
	c-3.3-4.8-2.1-14.5-1.5-20.1c0.7-7.1,2.3-14,1.1-21.2C34,9.8,30.2,8.4,28.9,11.3z"/>
<path class="st5" d="M41.1,42.4c-1.9,4-1.3,8.9-4.2,12.6c-2.1,2.7,1.5,6,4,3.5c1.9-1.9,3.2-4.3,4.2-6.8c1-2.5,2.2-5.4,1.8-8.1
	C46.6,40.7,42.5,39.4,41.1,42.4z"/>
<path class="st6" d="M46.4,54.7c-5.1-0.5-9.4,1.6-14.3,1.9c-3.7,0.2-6.7,0.1-9.2,2.6c-0.9,0.7-1.6,1.7-1.8,2.8c0,0,0,0,0-0.1
	c0,0.1,0,0.1,0,0.2c-0.9,0.7-1.9,1.1-3,1.6c-2.5,1.2-1,5.7,1.7,5.2c1.2-0.2,2.3-0.4,3.5-0.6c0.3,0.3,0.7,0.5,1.1,0.7
	c0.5,0.6,1,1.2,1.6,1.7c1.8,1.7,4.6,2.3,7,2.6c4.5,0.5,10,0.2,14.2-1.6c3.6-1.5,6.2-4.7,6-8.8C53.1,59.3,50.2,55,46.4,54.7z"/>
<path class="st7" d="M24.4,92.1c-2.5,3.6-1.9,7.2-2.5,11.5c-0.6,4.8-1.5,9.4-2,14.2c-0.7,7.6-2.8,16.4,0.6,23.6
	c1.3,2.7,5.3,1.5,4.5-1.5c-1.1-4-0.1-8,0.5-12c0.6-4.2,0.8-8.5,1.5-12.7c1-6.6,5.3-16.9,1.2-22.9C27.4,91.2,25.3,90.8,24.4,92.1z"/>
<g>
	<path class="st8" d="M56.8,7.4C56.1,6.8,55,7.3,55,8.2c0.4,4.9-1,9.9-1.8,14.8c-0.7,4.5-1.9,8.8-2.9,13.3c-1,4.4-4.5,8.4-6.6,12.3
		c-0.9,1.7-2.5,3.7-4.3,5.3c-1.1-1.1-2-2.1-2.8-3.3c0.2-0.1,0.3-0.3,0.3-0.6c0-0.3,0-0.6-0.1-0.9c0.8-2.3,2.4-4.1,3.3-6.4
		c1.6-3.8,3.3-7.6,4.2-11.6c0.9-4.1,1.1-8.4,2.1-12.5c1-4,2.2-8,3.3-12c0.3,0.1,0.7,0.3,1.1,0.4c2.1,0.5,0.3,4.7,0.1,5.8
		c-1,3.7-1.6,7.6-2.6,11.3c-0.8,2.7-0.3,5.3-1.2,8c-0.4,1.2-0.4,2.7-0.3,4c0,0.4,0.2,2.7,0.6,2.3c-0.7,0.8,0.5,1.8,1.2,1
		c0.4-0.4,0.3-0.7,0.2-1.3c-0.5-1.9-0.5-3.7-0.2-5.7c0.2-1.4,0.8-2.7,0.8-4.1c0.1-2.2,0.5-4.1,0.9-6.3c0.8-4.3,2.3-8.3,3.5-12.5
		c0.2-0.8,0.4-2.2,0-2.9c-0.9-1.5-2.6-1-3.9-2.2c-0.5-0.5-1.4-0.2-1.6,0.5c-1.1,4.5-2.4,9-3.5,13.5c-1,4.5-1.1,9-2.1,13.5
		c-0.7,3.3-2,7-3.5,10.2c0.5-2,1.2-3.9,1.5-5.9c0.3-3,0.3-5.9,0.1-8.9c-0.2-3.1-0.9-6.1-1.3-9.2c-0.1-1.1-0.2-2.1-0.6-3.2
		c-0.3-1-1-2.5-1.1-3.7c0-0.1,0.1-0.2,0.1-0.3c0.2-0.1,0.3-0.4,0.2-0.7c0.5-1.9,1-4,1.1-5.9c0-1.1-0.2-2.3-1.4-2.7
		c-0.4-0.2-0.8-0.1-1.2,0c-2.2,0.6-3.9,0.1-5.7-1.3c-0.3-0.3-1-0.3-1.2,0.2c-0.5,1.2-0.4,2.1-0.2,3.3c0.3,1.4,0.5,2.7,0.6,4.1
		c-0.6-0.2-1.3,0-1.9,0.4c-0.7,0.5-1.1,1.3-1.7,1.9c-0.3-0.8-0.5-1.6-0.8-2.4c-0.5-1.7-1.6-2.7-3.3-2.5c-1.4,0.2-2.8,1.3-4,1.8
		c-0.7,0.3-1.1,0.5-1.6,0.9c-0.1-0.1-0.1-0.1-0.2-0.2c-0.1-0.1-0.2,0-0.1,0.1c0,0.1,0.1,0.1,0.1,0.2c-0.3,0.2-0.5,0.5-0.8,0.8
		c-0.4,0.4,0.3,1,0.7,0.6c0.2-0.2,0.4-0.3,0.6-0.5c0.6,1.2,0.9,2.6,1.4,3.8c0.7,1.8,1.5,3.6,2.1,5.4c1.2,4,1.3,8.3,1.3,12.5
		c0,3.6,0,7.2,0.6,10.8c0.5,3.2,0.8,7,2.2,9.9c0.2,0.4,0.6,0.6,1,0.7c0,1,0,2-0.1,3c-0.2-0.1-0.4,0.1-0.3,0.3c0.1,0.3,0.1,0.6,0,0.9
		c-0.3,0.2-0.7,0.5-1,0.8c-1.8-2.5-3.6-5.7-4.8-8.6c-0.6-1.6-1.1-3.2-1.5-4.9c-0.6-2.2-1.7-4.1-2.1-6.5c-0.6-3.5-0.3-7.1-0.5-10.7
		c-0.2-3-1.2-5.8-1.9-8.7c1.7,0.1,3.2-0.6,4.6-1.8c0.9-0.8-0.3-2.1-1.1-1.3c-1.2,1.2-2.5,2-4.2,1.9c-0.4,0-0.6,0.4-0.5,0.7
		c0.8,3.8,2.1,7.3,2,11.2c0,3.7-0.2,7.2,0.6,10.8c0.4,1.6,1.3,3.1,1.7,4.7c0.5,2,1.1,3.9,1.9,5.8c1.1,2.7,2.5,6.1,4.8,8.1
		c-1.5,1.6-2.9,3.5-4.2,4.9c-3,2.9-6.5,5.2-9.6,8c-2.5,2.3-5,5.1-6.1,8.4c-1.6,4.5-1.7,9.6-2.5,14.3c-0.6,3.5,0,7.4,0.1,11
		c0.1,4.7-0.2,9.5-0.1,14.2c0,4.3-0.6,8.5-0.5,12.7c0,4.7,1,9.5,1.4,14.2c0.7,8.9,2.2,17.8,3.3,26.7c1,8.7,2.6,17.4,3.4,26.2
		c0.8,9.4,2,18.9,3.4,28.3c1.3,9.2,3.3,18.4,4.1,27.7c0.2,2,0.1,3.9,0.4,5.8c-0.2,0.1-0.2,0.3-0.1,0.6c1.6,2.3,1.2,5.8,1.3,8.4
		c0.2,3.2,0.7,6.5,1.1,9.7c0.7,5.7,2.9,12.2,6.6,16.7c2.3,2.8,7.3,5.3,10.7,3.6c4.8-2.4,8.1-8.2,10.2-12.8
		c2.4-5.2,4.2-11.7,4.3-17.4c0.1-7.3,1.4-14.4,2.4-21.7c0.9-7,1.5-14.1,1.9-21.1c0.2-4.8,1.5-9.6,2.2-14.3c0.6-0.1,1.1-0.5,1.1-1.3
		c0-3.4-1-6.7-0.9-10.1c0-3.5,1.3-7,1.6-10.6c0.3-3.1,0.8-6.1,0.9-9.2c0.1-3.6,1.1-7.1,1.4-10.7c0.6-6.6,2.3-13.2,3.9-19.6
		c0.8-3.3,1.5-6.6,1.8-9.9c0.3-3.4,0-6.6,0.7-10c1.4-6.5,3.1-12.6,3.5-19.2c0.2-3.2-0.2-6.6-0.5-9.9c-0.3-3.1-0.3-6.1-1.3-9.1
		c-2.1-6.3-1.8-14-5.6-19.6c-1.8-2.7-4.5-4.7-6.6-7c-1.3-1.4-2.5-2.8-3.9-4.2c-0.7-0.7-1.4-1.2-2.1-1.8c-0.1-1.2-0.8-2.3-1.2-3.4
		c-1.1-2.5,0-6.5,0.9-8.9c0.8-2.1,1.3-4.3,1.8-6.4c0.7-3.3,2.4-6.1,3.6-9.2c1-2.4,1.4-5,2.2-7.5c0.8-2.6,1.9-5,2.6-7.6
		C61.9,12.3,60,10.4,56.8,7.4z M37.2,14.3c0.8,3.6,1.2,7.3,1.7,11c0.5,3.5,0.4,7,0.1,10.4c-0.3,2.7-1.8,5.1-1.7,7.9
		c0,0.4,0.3,0.6,0.6,0.7c-0.5,0.9-1.3,1.9-1.8,3c-0.1-0.1-0.1-0.3-0.1-0.4c-0.6-1.7-0.7-3.3-1.1-5.1c-0.5-2.5,0.4-5.2,0.5-7.7
		c0.1-2.5,0.1-5,0.2-7.5c0-0.6-0.8-0.5-0.9,0c-0.2,2.8-0.1,5.6-0.4,8.4c-0.1,1.5-0.4,3-0.6,4.5c0-0.6-0.1-1.3-0.2-1.9
		c-0.5-2.7,0.7-5.1,0.6-7.7c-0.1-3.5,0.7-6.6,1.5-9.9c0.5-2,0.9-4.1,1.3-6.1C37.2,14,37.2,14.1,37.2,14.3z M28,9.9
		c0.6-0.3,1.1-0.8,1.8-0.4c0.1,0.1,0.2,0.1,0.4,0.1c0,0.5,0.1,1.1,0.1,1.6c0.1,3.1-0.6,6.3-1.3,9.4c-0.2-3.3-1.3-6.7-2.3-9.9
		C27.1,10.4,27.6,10.1,28,9.9z M23.7,39.4c-0.6-3.9-0.4-7.9-0.5-11.8c-0.2-3.6-0.7-7.2-1.9-10.6c-0.9-2.5-2.1-5.8-3.8-8.1
		c1.2-0.7,2.5-1.1,3.8-1.7c3.2-1.5,3.6,3.2,4.3,4.8c0.8,1.9,1,4.1,1.2,6.1c0.3,2.3,0.7,4.2,0.3,6.4c-0.1,0.1-0.2,0.2-0.2,0.3
		c0,0.3,0,0.5,0,0.8c0,0.4,0.3,0.6,0.6,0.7c-0.1,0.3-0.1,0.7-0.2,1c-1,4.8-1.6,9.7-1.8,14.6c-0.1,1.8,0,3.7,0.1,5.5
		C24.8,44.8,24.1,42,23.7,39.4z M26.8,46c-0.1-5.5,0.5-10.9,1.4-16.2c0.9-5.1,2.5-10.2,3.3-15.3c0.3-2.2,0.1-4.5,0-6.8
		c-0.1-1.5-0.9-3.8-0.8-5.5c0.9,0.8,1.8,1.4,3,1.4c0.9,0,1.8,0,2.7-0.2c1.2-0.3,0,4.4,0,4.8c-0.9,6.2-3.3,12.2-3.9,18.5
		c-0.3,2.7-0.7,5.5-0.8,8.3c-0.1,2.8,0.8,5.5,0.6,8.4c-0.3,4.4,2.4,9.1,6,11.5c-0.2,0.1-0.4,0.3-0.6,0.4c-0.4,0.1-0.8,0.3-1.2,0.7
		c-0.1,0-0.1,0.1-0.1,0.1c-0.1,0.1-0.2,0.1-0.4,0.2c-0.8-0.3-1.6-0.7-2.5-1.1c-1.9-0.6-3.5-0.6-5.4-0.2c-0.6,0.1-1.1,0.3-1.6,0.6
		C26.9,52.4,26.8,49.2,26.8,46z M58.2,69.6c3,3,5.2,5.5,6.2,9.7c0.8,3.6,1.5,7.2,2.2,10.8c0.7,3.7,1.9,6.9,2,10.7
		c0.1,3.3,0.6,6.6,0.6,9.9c-0.1,7.1-2.3,13.8-3.9,20.6c-0.7,3.3-0.3,6.7-0.6,10.1c-0.3,3.3-1.2,6.6-2,9.9c-0.8,3.2-1.2,6.5-2.2,9.7
		c-1,3.5-1.4,6.5-1.7,10c-0.3,3.1-1.2,6.1-1.4,9.2c-0.2,3.5-0.8,7-1.1,10.5c-0.3,3.3-1.4,6.5-1.6,9.8c-0.3,3.4,0.8,6.7,0.8,10.1
		c-0.1,1.2-0.3,2.5-0.5,3.7c-0.5,2.9-1.3,5.7-1.6,8.7c-0.6,6.5-1,13-1.6,19.5c-0.6,6.1-1.6,12.2-2.6,18.2c-0.4,2.6-0.7,5-0.5,7.6
		c0.2,3.3-0.7,6.6-1.5,9.8c-1.7,6.2-3.9,11.4-7.9,16.4c-1.9,2.4-4.5,4.6-7.7,3.5c-3.2-1.2-5.6-3.2-7.3-6.2c-3.1-5.5-4.2-11.9-4.9-18
		c-0.3-2.8-0.6-5.5-0.8-8.3c-0.1-1.1-0.3-2.3-0.7-3.4c0.4-0.1,0.7-0.4,0.6-0.9c-0.7-3.9-0.4-8-1-12c-0.4-2.5-0.8-5.1-1.2-7.6
		c3.7,1,7.8,1.4,11.6,1c0.3,0,0.4-0.6,0-0.6c-4-0.3-7.9-0.3-11.8-1.4c-0.3-2-0.6-3.9-0.9-5.9c-1.5-9.5-2.7-18.9-3.9-28.4
		c-2.3-17.8-4.9-35.5-6.8-53.3c-1-9.2-3-18.4-2.1-27.6c0.4-4.1,0.2-8.1,0.2-12.2c0-4.6,0.4-9.2,0.2-13.8c-0.1-2.3-0.3-4.2,0.1-6.6
		c0.4-2.2,0.7-4.5,1.1-6.8C4.5,80.6,6,76.7,10,72.7c2.9-2.8,6.2-5.2,9.3-7.8c0.2,0,0.4,0,0.6-0.1c0.5-0.2,1-0.4,1.4-0.6
		c0.2,0.1,0.3,0.1,0.6,0.1c0.2,0,0.3-0.1,0.4-0.2c0.6,0.1,1.2,0.3,1.5,0.5c1,0.4,2.1,0.2,3.1,0.1c3.2-0.4,6-0.8,9.2,0
		c5.4,1.3,11.3,4.1,16.4,0.3c0.5-0.4,0.6-1,0.4-1.6C54.7,65.5,56.3,67.7,58.2,69.6z M49.6,43.3c-0.6,2.3-1.6,4.5-2,6.9
		c-0.3,1.9-0.6,4.1-0.2,6.1c0.3,1.2,1.2,2.4,1.4,3.7c-0.3,0.7,0.3,1.8,1.3,1.4c0,0,0.1,0,0.1,0c0.1-0.1,0.3-0.1,0.4-0.2
		c0.1,0.1,0.1,0.1,0.2,0.2c0.3,0.3,0.7,0.6,1,1C51.4,62.1,51,62,50.4,62c-0.4,0-0.8,0.4-0.7,0.8c0.1,0.5,0.2,0.9,0.4,1.3
		c-4.8,3.8-11.9-0.6-17.2-0.9c-2.6-0.1-4.9,0.6-7.5,0.8c-0.5,0-1.2-0.2-1.8-0.3c0.8-0.2,1.6-0.3,2.4-0.3c0.8-0.1,0.7-1.2-0.1-1.3
		c-1.3-0.1-2.5,0-3.6,0.2c0.6-0.6,1.1-1.2,1.7-1.9c0.5-0.5,1-1,1.5-1.4c0.2,0,0.4,0,0.5-0.3c0,0,0-0.1,0-0.1
		c1.3-0.9,2.7-1.6,4.3-1.7c1-0.1,2,0.2,2.9,0.5c0,0,0,0,0,0c-0.5,0.1-0.5,0.9,0,0.8c0.5,0,0.9-0.1,1.4-0.2c1.7,0.8,3.3,1.6,5.4,0.8
		c1.3-0.4,0.6-2.2-0.6-1.9c-0.6,0.1-1.1,0.1-1.6,0.1c0.5-0.3,1.4-0.3,1.9-0.4c0.4,0,0.8,0,1-0.4c0.1-0.3,0.1-0.4,0-0.7
		c-0.2-0.4-0.7-0.3-1-0.3c0-0.1,0.1-0.1,0.1-0.2c0.9-0.9,1.8-1.8,2.7-2.7c1.7-1.8,2.8-3.5,3.9-5.7c1.1-2,2.6-3.8,3.8-5.7
		C50,41.6,49.8,42.4,49.6,43.3z M58.8,14.9c-0.4,2.3-1.3,4.6-2.1,6.8c-0.9,2.5-1.3,5-2.1,7.6c-0.5,1.8-1.4,3.4-2.2,5
		c0.1-0.5,0.2-1,0.3-1.5c0.6-2.8,1.5-5.5,2.1-8.3c0.9-4.5,2.1-9.3,2.2-13.9C58.2,11.7,59.1,13,58.8,14.9z"/>
	<path class="st8" d="M34,69.7c-2.9,0.8-5.6,1.7-8.5,2.1c-1.7,0.2-2.8,0.5-4.5,0.3c-1-0.1-1.8-0.5-2.8-0.3c-0.2,0-0.2,0.3,0,0.3
		c1.2-0.2,2.3,0.4,3.5,0.5c1.6,0.1,3-0.2,4.6-0.4c2.7-0.3,5.5-0.9,7.9-2.2C34.3,70,34.2,69.7,34,69.7z"/>
	<path class="st8" d="M62.8,81c-1.5,0.8-2.2,2.4-3.8,3c-1.9,0.8-4.3,1.4-6.3,1.7c-1.5,0.2-3,0-4.5,0.3c-2.2,0.4-3,1.5-5.5,1.3
		c-0.1,0-0.1,0.1,0,0.1c1.5,0.2,2.6-0.1,4-0.6c2.3-0.9,4.4-0.6,6.9-0.9c1.8-0.2,3.8-0.9,5.6-1.5c1.7-0.6,2.4-2.2,3.9-3.1
		C63.3,81.3,63.1,80.9,62.8,81z"/>
	<path class="st8" d="M38.5,167.1C38.5,167.1,38.5,167.2,38.5,167.1C38.6,167.1,38.5,167.1,38.5,167.1z"/>
	<path class="st8" d="M51.9,164.8c-1.6,2-4,1.7-6.3,1.7c-2.6,0-4.8,1.1-7.4,0.9c0,0,0.1,0,0.1-0.1c0.2-0.1,0-0.6-0.2-0.5
		c-0.3,0.1-0.6,0.3-0.9,0.4c-0.3,0.1-0.3,0.5,0,0.6c3.4,0.8,6.5-0.5,9.9-0.4c1.9,0.1,5.3,0.1,5.5-2.4
		C52.6,164.7,52.1,164.6,51.9,164.8z"/>
	<path class="st8" d="M53,144c-2.9,0.5-5.4,2-8.3,2.5c-0.8,0.1-0.7,1.3,0.1,1.2c2.9-0.5,6-1.5,8.5-3.2C53.4,144.4,53.3,143.9,53,144
		z"/>
	<path class="st8" d="M66.6,121.8c-1.8-0.9-4.2,0.3-6,0.9c-3.5,1.1-7.3,0.8-10.9,0c-0.4-0.1-0.5,0.5-0.1,0.6
		c3.1,0.8,6.1,1.2,9.3,0.8c1.1-0.1,2.2-0.4,3.3-0.7c1.5-0.4,3-0.4,4.4-0.8C66.9,122.4,66.9,122,66.6,121.8z"/>
	<path class="st8" d="M62.4,114.5c-1-0.2-2.2,0.2-3.3,0.3c-1.3,0.2-2.6,0.3-3.8,0.3c-0.3,0-0.3,0.5,0,0.5c1.1,0,2.3-0.1,3.4-0.1
		c1.2-0.1,2.6,0,3.7-0.4C62.6,114.9,62.7,114.5,62.4,114.5z"/>
	<path class="st8" d="M20.5,135.2c-1.5-0.1-3-0.1-4.5-0.3c-1.7-0.3-3.3-0.9-4.9-1.5c-0.5-0.2-0.9,0.6-0.4,0.8
		c3.1,1.2,6.5,2.5,9.8,1.7C20.8,135.8,20.8,135.2,20.5,135.2z"/>
	<path class="st8" d="M50.4,232.4c-3.6,2.1-7.1,1.9-11.2,1.5c-0.4,0-0.5,0.5-0.1,0.6c3.6,0.4,9,1.5,11.7-1.7
		C50.9,232.5,50.6,232.2,50.4,232.4z"/>
	<path class="st8" d="M45.4,223C45.4,223,45.5,223,45.4,223C45.5,223,45.5,222.9,45.4,223z"/>
	<path class="st8" d="M21.5,212.2c-2.9-0.9-6.3-0.4-9.3-1c-0.2,0-0.3,0.2-0.1,0.3c2.9,0.9,6.3,1.5,9.3,1.3
		C21.8,212.7,21.8,212.3,21.5,212.2z"/>
	<path class="st8" d="M44.4,271.8c-1.4,0.5-2.8,1-4.3,1c-1.4,0-2.9-0.4-4.2-0.7c-0.9-0.2-1.2,1.2-0.3,1.4c3,0.6,6.9,1.6,9.2-1.1
		C45.1,272.2,44.8,271.7,44.4,271.8z"/>
	<path class="st8" d="M53.3,191.7c-2.3,2.2-3.8,3.8-7.2,4.5c-3.7,0.7-7.8,0.1-11.4-1c-0.3-0.1-0.4,0.4-0.1,0.5c4,1.4,9,2.3,13.1,1.2
		c2.1-0.5,6.8-2.2,6.2-5.1C53.9,191.5,53.5,191.5,53.3,191.7z"/>
	<path class="st8" d="M24.2,176.3c-1.7,0.2-3.4,0.7-5.1,0.9c-2,0.2-3.9-0.1-5.8-0.7c-0.6-0.2-0.8,0.8-0.2,1
		c3.4,1.2,8.1,1.4,11.3-0.4C24.7,176.8,24.5,176.3,24.2,176.3z"/>
</g>
</svg>
