<?xml version="1.0" encoding="utf-8"?>
<!-- Generator: Adobe Illustrator 20.1.0, SVG Export Plug-In . SVG Version: 6.00 Build 0)  -->
<svg version="1.1" id="Layer_1" xmlns="http://www.w3.org/2000/svg" xmlns:xlink="http://www.w3.org/1999/xlink" x="0px" y="0px"
	 viewBox="0 0 86.6 300" style="enable-background:new 0 0 86.6 300;" xml:space="preserve">
<style type="text/css">
	.st0{fill:#ED6F1F;}
	.st1{fill:#EA5818;}
	.st2{fill:#EF7B28;}
	.st3{fill:#629C30;}
	.st4{fill:#8CBE27;}
	.st5{fill:#F5A268;}
	.st6{fill:#271111;}
</style>
<path class="st0" d="M41.2,298c1.6-2.5,2.7-5,3.6-7.8c1-2.9,2.9-5.2,3.8-8.2c0.4-1.2,0.6-2.4,0.8-3.6c1.3-0.8,2.3-2.1,2.5-4
	c0.3-2.2,0.3-4.1-0.5-6.1c0.3-1.3,0.6-2.6,0.8-4c0.4-0.4,0.8-0.8,1.2-1.3c2-2.6,2.2-6,3.3-9c1.3-3.4,2.3-7.1,3.3-10.6
	c1.9-6.7,1.4-13,1.2-19.8c-0.2-6.7,2.3-12.1,4-18.5c1.8-6.8,3.2-12.5,2.8-19.5c-0.4-5.8,2.2-11.4,4.5-16.5c2.8-6.2,1.5-12,2.2-18.4
	c0.3-2.8,1.7-6,2.4-8.7c1-3.9,2.1-7.8,3.5-11.6c2.2-6.2,4.3-11.9,4.2-18.6c-0.1-7.2-1.6-14.3-4.2-20.9c-0.6-1.6-1.1-3.1-1.6-4.6
	c0.2-0.3,0.4-0.6,0.6-0.8c-1.2,1.7,1.8-2.3,2.2-2.8c0.8-0.9,1.5-2,2.1-3c2.4-4.2,3-8.3,2.5-13.1c-0.8-7.6-6.4-13.3-11.9-17.9
	c-6.4-5.3-15.2-5.1-22.6-2.3c-0.5,0.2-1,0.4-1.5,0.7c-2.7,0-5.2-0.1-7.8,0.2c-5-1.9-10.3-3-15.2-3.1c-6-0.2-12.9,1.8-16.5,6.9
	C7.3,56.2,6.1,62.7,6,69.1c-0.3,12-0.7,24.2,1.6,36c2.5,12.7,3.2,25.6,3.8,38.6c0.3,6.4,0.9,12.5,2.5,18.7c1.6,6,4,12.1,4.2,18.4
	c0.3,6.2,0.1,12.4,0.4,18.6c0.3,6.6,1.7,13.1,2.5,19.6c0.8,6.1,1.2,12.1,2.8,18.1c1.7,6.3,3.9,12.1,4.6,18.6
	c0.3,2.6,0.7,5.2,1.6,7.7c0.3,0.8,0.6,1.5,0.8,2.3c0.1,3.5,0.2,7.1,0.5,10.5c0,1.4,0.2,2.7,0.6,4c0.5,2.6,1.3,5.1,2.5,7.5
	c-0.4,2-0.9,3.9-1.9,5.8C29.9,298.4,38.2,302.6,41.2,298z"/>
<path class="st1" d="M24.6,117.1c2.9,2.1,6.1,1.3,9.3,0.5c4.3-1,8.6-1.1,12.8-2.6c3.3-1.1,1.4-6.8-1.9-5.8c-3.2,1-6.5,1.2-9.8,1.6
	c-2.5,0.3-5,1.4-7.5,0.6C24.2,110.5,21.7,115,24.6,117.1z"/>
<path class="st1" d="M77.9,110.4C78,110.4,77.9,110.3,77.9,110.4C77.8,110.4,77.9,110.4,77.9,110.4z"/>
<path class="st1" d="M65.5,112.2c5.6,0.3,9.6-1.6,14.5-3.9c3.9-1.8,2.5-5.9,0-7.5c-0.1-1.8-0.3-3.7-0.3-5.5c0.8-0.1,1.5-0.4,2.1-1
	c4.6-4.9,5-19.6-5-17.5c-3.9,0.8-6.5,4-10.7,4.6c-4.8,0.7-9.4-2.2-14.1-2.3c-5.5-0.1-6.6,6.6-2,9c5.1,2.6,12.2,3.3,17.8,2.7
	c1.7-0.2,3.3-0.7,4.9-1.4c0.4,4.1,1.4,8.3,2.1,12.4c-0.1,0.1-0.1,0.1-0.2,0.2c-3,4.2-10,2.8-14.2,2.2c-2.6-0.4-10.1-0.5-7.8,4.3
	C54.4,112.2,62.1,112,65.5,112.2z"/>
<path class="st1" d="M34.4,287.5c0.5,2.5,1.8,4.7,4,6c1.8,1.1,4.8-0.2,4.1-2.6c-0.3-1-0.5-1.9-0.9-2.8c-0.1-0.2-0.1-0.3-0.1-0.3
	c0,0,0-0.1-0.1-0.4c0,0-0.1-0.7-0.1-0.7c0-0.8,0.1-1.6,0.2-2.3c0.1-0.6,0-1.1-0.2-1.6c0.3,0,0.5-0.1,0.8-0.1c0,0.3-0.1,0.6,0,1
	c0,0.2,0,0.4,0,0.6c0.2,3.1,4.1,3.6,6.1,2.2c2.9-2.1,2.8-5.6,5-8.2c1.2-1.4,3.3-2.9,3.3-4.9c0-1.5-1.2-6.3-0.1-7.4
	c1.9-1.9,4.1-4.8,2.4-7.7c-2.3-4.1-0.1-9,0.3-13.5c0.2-2.2-0.2-4.1,1-6.2c0.7-1.1,2.2-2.8,2.3-4.2c0.1-1,0.2-2.3-0.5-3.2
	c0.6-1.2,1-2.3,1.8-3.3c2.2-2.7,3-7.1,3.1-10.5c0.1-2.6,0.8-6.1-0.7-8.5c-0.5-0.9-1.4-1-2.1-0.6c1.4-2.9,1.7-6,1.8-9.3
	c0.1-4.6,0.7-8.8,2.6-13c1.6-3.6,4.1-6.5,5.2-10.3c1.1-4.1-0.1-6.9-2.1-10.3c-1-1.8-0.2-1.6,1.2-2.8c1.3-1.2,2.7-2.2,3.4-3.9
	c1.5-3.8,1-8.8,1.1-12.8c0.1-4.8,1-9.3,1.8-14c0.8-4.6,0.2-8.7,0.3-13.2c0.8-2.3-2.5-4.8-4.6-2.9c-1.4,1.2-2,2.6-2.4,4.2
	c-1.9,0.3-3.8,1.1-5.6,1.7c-2.4,0.9-0.7,4.5,1.7,3.6c1.1-0.4,2.3-0.9,3.5-1.2c0,0.2,0,0.4,0,0.6c-0.3,4.9-1.8,9.7-2.7,14.5
	c-0.9,4.5-0.2,9.3-0.7,13.9c-0.2,1.8,0.3,2-1,3.2c-1.6,1.5-2.7,2.6-3.5,4.7c-1.3,3.1,0.5,6.8,2.1,9.5c1.8,3.1-2.3,8.2-3.9,10.6
	c-2.3,3.4-3.3,7.7-3.9,11.6c-0.7,4.1,0.6,9.4-1.9,13c-3,4.4,3.7,9.2,6.7,4.8c0.2-0.2,0.3-0.5,0.4-0.7c0,0.2,0,0.3,0.1,0.5
	c1.1,3.2-2.1,6-3.2,8.6c-1.4,3.3-2.6,6.8-3.2,10.4c-0.3,1.7,1.7,4.4,1.3,5.2c-1.7,3.1-3.2,4.9-3.3,8.6c-0.2,4.1-1.2,8.7-2.5,12.6
	c-0.3,1-0.5,2.2-0.5,3.2c-0.1,0.6,0.1,1.2,0.3,1.7c-0.1-0.3-1.6,1.4-1.8,1.5c-0.8,1.1-1.6,2.4-1.6,3.8c-0.1,1.7,1,5.3-0.2,6.5
	c-1,1.1-2.1,2.2-3,3.4c-0.4,0.5-0.7,1.3-0.9,2.1c-0.2-0.2-0.5-0.3-0.9-0.4c-1.2-0.3-2.2-0.6-3.3-1.2c-0.2-0.4-0.4-0.9-0.5-1.1
	c-0.4-0.8-0.8-1.6-1.4-2.4c-0.6-0.6-0.9-0.9-1.1-1c-0.3-0.3-0.7-0.6-1.1-0.9c-0.2-0.1-0.5-0.3-0.7-0.4c0.1-2.6,0.8-5.2,1.1-7.8
	c0.3-2.5-0.3-4.9-1.1-7.4c3.6-0.1,8.5-1.8,9.3-5.7c0.1-0.4-0.3-0.7-0.7-0.8c-2.8-0.3-5.4,0.1-8.2-0.8c-1.3-0.4-2.4-1.1-3.5-1.8
	c-0.5-0.9-0.8-1.9-0.8-2.9c0.1-2.2,0.5-4.1,0-6.3c-1.1-4-1.6-8.8-3.9-12.3c-2.4-3.7-0.8-9.6-1.1-13.8c-0.1-2.2,0.9-4.7,0.4-6.8
	c-0.5-2.1-1.2-4.1-2.2-6.1c-1-2-1.5-4.4-2.2-6.5c-0.6-1.8-2.4-2.8-2.9-4.7c-0.3-1.4-0.5-2.8-0.5-4.2c3.6,5,10.9,5.5,16.4,6.7
	c6.2,1.3,13.8-0.7,19.7-2.5c3.9-1.2,3-7.1-1.2-6.3c-5.6,1-11,1-16.5-0.4c-5-1.3-9.4-4.3-14.6-5.2c-1.6-0.3-2.9,0.2-3.7,1.2
	c0.2-1.5,0.4-3,0.7-4.5c0.8-4.3-0.1-8.8-1.4-12.9c-1.6-5.1-1.5-9.1-0.9-14.4c0.5-5.3-0.1-10.3-1-15.5c-0.8-5,0.2-10.2-0.2-15.3
	c-0.3-4.8-1-9.4-1.5-14.1c0.6-0.1,1.3-0.1,2-0.1c4.1,0,8.1-1,12.1-1.1c3.8-0.1,7.5,0.8,11.4,0.5c3-0.2,5.1-2.5,7.2-4.6
	c1.2-1.2,0-3.5-1.7-2.6c-3.7,2.2-6.9,1.1-10.7-0.3c-3.4-1.3-6.4-1.7-10-1.7c-2.9,0-5.9-0.9-9-1.6c0.2-0.4,0.3-0.9,0.4-1.5
	c0.5-2.8-1.1-4.9-1.4-7.5c0.2-3.3,0.1-6.5-0.3-10c-0.1-1-0.3-1.9-0.4-2.9c0.1-2,0.4-4.2,1.5-5.9c1.5-2.4,3.6-2.4,6-3.4
	c2.7-1.2,6.4-0.8,9.3-1.4c3.6-0.8,6.3-4.7,10.1-4.7c1.8,0,2-2.5,0.2-2.7c-12.1-1.6-25.5-8.3-36.1,1c-4.6,4-6.5,11.2-6.2,17.1
	c0.1,3.4,0.5,6.7,1,10.1c0.6,3.6,0.9,8.1,3.3,11c0.1,0.1,0.1,0.2,0.2,0.2c-0.1,0.7-0.1,1.3-0.1,2c0,0.9,0,1.7,0,2.6
	c-0.6,1.7-0.5,3.7,0.2,5.2c0.2,3,0.6,6,0.9,9c1.2,10.4,0.7,20.6,2.2,31c0.7,5.1-1.1,10.4-0.8,15.5c0.3,5.2,2.7,9.8,3.5,15
	c0.4,2.7-0.4,5.6-0.8,8.2c-0.3,2.6-0.1,5.1,0.4,7.7c0.4,2.3,0.2,4.5,0.7,6.7c0.6,2.5,1.8,3.9,3.3,5.9c1.3,1.7,1.5,4.5,2.4,6.4
	c1.1,2.3,1.2,2.6,0.9,5.1c-0.6,5.4,0.1,11.8,0.7,17.2c0.2,2,1.2,3.5,2.3,5.2c1.3,2,1,4.6,1.9,6.8c0.9,2.2,1.5,3.4,1.7,5.8
	c0.1,1,0.2,2,0.5,3c-0.6,0.9-0.8,1.9-0.7,2.9c0.5,3.1,3,4.9,5.8,6c0.1,0.2,0.2,0.5,0.3,0.7c-3.7,2.1-4.5,7.3-4,11.3
	c0.3,1.9,1.7,5,3.6,6.3c-1,1.9-0.9,4.7,0.2,6.5c1.2,2,2.7,3.2,4.8,3.8C34,284.5,34.1,286.1,34.4,287.5z"/>
<path class="st1" d="M62.3,73.8c4.7-0.1,9-1.1,13.4-2.5c3.4-1.1,1.9-5.7-0.8-5.1c-0.3,0-0.6,0-0.9,0c-0.2-0.3-0.4-0.5-0.6-0.8
	c-0.5-0.6-1.3,0.1-1,0.7c-3.1-0.1-6.2,0.1-9.4-0.2c-2.8-0.2-10.5-2.9-11,1.8C51.5,72.8,58.8,73.8,62.3,73.8z"/>
<path class="st1" d="M80.7,75.6c0.7-0.6,0.8-1.7,0.2-2.4c-0.1-0.1-0.2-0.3-0.3-0.4c0,0,0-0.1-0.1-0.1c0.1,0.1-0.1-0.2-0.1-0.2
	c-0.2-0.3-0.2-0.7-0.5-0.9c-0.2-0.1-0.3-0.3-0.5-0.4c0,0,0,0,0,0c-0.4-0.5-1.2-0.6-1.7-0.1c-0.2,0.2-0.4,0.4-0.5,0.6
	c-0.4,0.7-0.4,1.4-0.1,2.1c0.3,0.6,0.7,1.2,1.1,1.7C78.8,76.1,80,76.2,80.7,75.6z"/>
<path class="st2" d="M56.1,64c2.9-0.8,5.3-2.5,8.2-3.1c3.2-0.8,6.7-0.8,10-1c6.1-0.4,4.9-9.4-0.5-10.2c-7.6-1.2-17.8-0.4-23.1,5.8
	C47.6,59,51.6,65.4,56.1,64z"/>
<path class="st2" d="M50.8,79.9c2.3,0.9,4.7,0.5,7.1,0.3c1.8-0.2,4.1-0.6,5.9-0.1c2.4,0.7,4.5-2.6,2.2-4.1
	c-4.1-2.6-9.4-5.1-14.4-4.2C47.3,72.4,46.9,78.4,50.8,79.9z"/>
<path class="st2" d="M50,106c3.2,0.2,5.6-1.6,8.1-3.4c2.1-1.5,4.2-2.1,6.6-2.8c3.6-1.2,2.8-6.9-1.1-6c-3,0.7-5.8,0.2-8.8,0.3
	c-4.8,0.2-9.2,2.8-8.8,8.2C46.1,104.3,48.2,105.9,50,106z"/>
<g>
	<path class="st2" d="M45,138.6c0.8-0.4,1.4-0.9,2.1-1.4c-1.3,1,1.4-0.4,0.6-0.2c1.7-0.5,3.6-0.8,5.4-0.8c1.5,0,3.7,0.2,4.8,0.5
		c1.1,0.3,2,0.4,3.1,0c0.3-0.2,1.2-0.6,1.3-0.9c3.4-5.2-5.5-7.9-9-8.6c-0.6-0.1-1.2-0.2-1.9-0.3c0.8-0.4,1.6-0.9,2.5-1.4
		c3.9-2.2,8.7-2.2,13-2.4c2.9-0.1,4.5-4.5,1.2-5.4c-4.6-1.3-9.1-2.6-13.9-2.5c-2.4,0-4.6,0.6-6.9,0.9c-1.9,0.3-3.1,0-4.9,0.8
		c-4.4,2.1-4.4,8.3-0.9,10.8c-1.7,0.8-3.1,2-4,3.9C35.3,136.3,41,140.4,45,138.6z"/>
	<path class="st2" d="M61.1,136.7c-0.1,0-0.1,0-0.2,0.1C60.8,136.8,60.8,136.8,61.1,136.7z"/>
</g>
<path class="st2" d="M37,180.2c0.5,0,5.7-1.1,2.8-0.3c0.8-0.2,1.7-0.3,2.5-0.5c2-0.4,4-0.7,6.1-1c3.5-0.5,6.9-1.2,10.4-1.5
	c4.1-0.3,4.5-6.9,0.7-8c-3.8-1.1-7.7-1.9-11.6-2.3c-4.3-0.5-11.1-1.7-14.6,1.6C29,172.2,30.8,179.7,37,180.2z"/>
<path class="st2" d="M36.1,206c3,0.8,6.3,0.4,9.5-0.4c0.3,0,0.6,0,0.9-0.1c0.2,0,0.5-0.1,0.7-0.1c0.2,0,0.3,0.2,0.9,0.8
	c3.5,3.1,7.6,0.3,8.5-3.4c1.4,0,2.8,0.1,4.3,0.3c4.1,0.7,7.4-3.7,6.7-7.4c-0.3-1.6-1.3-3-2.6-4c0,0,0,0,0.1,0
	c-0.2-0.1-0.4-0.2-0.6-0.3c-0.1-0.1-0.2-0.1-0.3-0.2c-3.9-2.1-8.2-2-12.5-1.3c-4,0.6-8.3,1.5-12.3,2.8c-1.3,0-2.5,0.3-3.8,1.1
	C31.1,196.3,30,204.4,36.1,206z"/>
<path class="st2" d="M42.9,227.1c0.8,0.6,1.7,0.9,2.7,1c0.1,0,0.3,0.1,0.4,0.1c-0.1,0-0.3-0.1-0.4-0.1c0.7,0.1,1.2,0.2,2,0.1
	c0.4,0,0.8,0.1,1.1,0.2c0.9,0.1,1.7-0.1,2.5-0.4c1.1-0.5,2-1.5,2.5-2.7c0.8-2.1,0-4.3-1.7-5.6c-0.5-0.4-1-0.7-1.5-1
	c-0.6-0.3-1.2-0.7-1.8-1c-0.6-0.3-1.3-0.3-1.9-0.3c-0.1,0-0.1,0-0.2,0c-0.5,0-1,0-1.5,0.1c-0.9,0.2-1.8,0.6-2.5,1.2c0,0,0,0,0,0
	c-0.7,0.6-1.3,1.4-1.6,2.3c-0.3,0.9-0.4,1.9-0.3,2.9c0.2,0.9,0.6,1.8,1.2,2.5C42.2,226.5,42.5,226.8,42.9,227.1z"/>
<path class="st2" d="M38.7,239.1c1,0.7,2.3,0.6,3.2-0.1c0.7-0.6,1.1-1.6,0.9-2.5c-0.2-1.2-1.2-1.9-2.4-2.1c-0.1,0-0.3-0.1-0.4-0.1
	c-1.2-0.2-2.3,0.9-2.4,2l0,0.5C37.5,237.6,37.9,238.5,38.7,239.1z"/>
<g>
	<path class="st3" d="M37.7,43.1C37.7,43.1,37.7,43.1,37.7,43.1c-0.1-0.2-0.3-0.4-0.5-0.7C37.4,42.6,37.5,42.9,37.7,43.1
		c0.3-0.1,0.6,0.5,0.5,0.6c2.7,3,6.8,2.9,9.4,1c2.5,3.8,6.7,5.4,11,0.6c1.4-1.5,1-4.1-0.2-5.6c-0.9-1.2-2-2.1-3.3-2.8
		c0.1-0.2,0.1-0.4,0.3-0.6c1.3-3.3,2.4-6.1,2.1-9.8C57,23,56.2,19.4,55.4,16c1.7-4.7,2-10.5-1.1-14.4c-1.9-2.4-5.4-1.9-7.1,0.3
		c-0.6,0.7-1,1.5-1.4,2.3c-3-1.3-7-0.5-8.8,2.4c-1.3,2-1.8,4-1.8,6.1c-0.2,1-0.4,2.1-0.5,3.1c-0.9-0.3-1.9-0.4-2.9-0.3
		c-5.5,0.6-7.3,6.3-6.2,11c1.1,4.8,0.5,9.8,2.3,14.4C29.4,45.2,34.5,45.2,37.7,43.1z"/>
	<path class="st3" d="M37.7,43.1c0.3,0.5,0.5,0.6,0.5,0.6C38,43.5,37.9,43.3,37.7,43.1C37.7,43.1,37.7,43.1,37.7,43.1z"/>
</g>
<path class="st4" d="M41.3,31c1.6,1.5,3.5,2.5,5.6,3.2c4.3,1.3,6.6-4.8,2.4-6.5c-0.6-0.2-1.1-0.5-1.6-0.8c0-0.4,0-0.8,0-1.2
	c0.9,0.9,2.4,1.5,3.7,1.2c3.5-0.8,5.2-3.4,5.5-6.9c0.2-2.3,0-5.2-1.7-7c-1.6-1.7-4.3-2.3-6.3-1.1c0.1-0.1,0.2-0.2,0.3-0.3
	c2.5-2.4-0.7-6.2-3.5-4.1c-2.1,1.5-3.7,4.7-5.5,5.7c-3,1.8-1.7,6.2,1.9,5.8c2.1-0.2,3.3-1.6,4.3-3.2c0,0.2-0.1,0.3-0.1,0.4
	c-0.2,0.8-0.4,1.5-0.5,2.3c-0.2,1.4-0.2,2.7,0.1,3.9c-0.9-0.5-2.1-0.6-3.2,0c-0.5,0.2-1,0.4-1.4,0.9c-0.7,0.7-0.9,1.1-1.4,2
	c0.5-1-0.3,0.5-0.5,0.9C38.7,28.1,39.6,30.1,41.3,31z"/>
<path class="st4" d="M34.3,33.7c0.2-1.9,0.3-3.8,0.2-5.7c-0.2-2-0.2-4.3-1.4-5.9c-0.3-0.6-0.7-1.1-1.3-1.6c-1-0.9-2.7-0.6-3.7,0.2
	c-4.5,3.4-0.8,10.1,0.8,14C30,37.4,34,36.4,34.3,33.7z"/>
<path class="st5" d="M49.6,101.3c2.2,0.2,4.5,0,6.8-0.1c3-0.2,2.2-4.9-0.8-4.6c-2.2,0.2-4.3,0.4-6.5,0.2c-1.5-0.1-5-0.8-4.6,1.8
	C44.6,100.9,47.7,101.1,49.6,101.3z"/>
<path class="st5" d="M56.8,77c1.9-0.2,3.5-0.6,5.2-1.7c1.5-1,1.5-3.4,0.4-4.7c-1.2-1.4-3.3-1.6-4.7-0.4c-0.2,0.2-0.3,0.2-0.2,0.2
	c-0.1,0.1-0.2,0.1-0.4,0.2c0.2-0.1-0.4,0.1-0.5,0.1c-0.3,0.1-0.6,0.1-0.9,0.2c-1.4,0.3-2.4,1.4-2.5,2.8c-0.1,0.6,0.1,1.1,0.3,1.6
	C53.9,76.7,55.4,77.1,56.8,77z"/>
<path class="st5" d="M53.2,63.6c3.1,0,6.8-1.4,9.2-3.1c1.5-1.1,1.5-3.5,0.4-4.8c-1.3-1.5-3.3-1.5-4.8-0.4c-0.9,0.6-2.1,0.9-3.1,1.2
	c-1.8,0.6-3.3,1.6-4.2,3.3C50,61.3,51.5,63.6,53.2,63.6z"/>
<path class="st5" d="M55.6,138.7c1.3-0.1,2.7-0.8,3.9-1.4c1.1-0.5,2.3-1,3.2-2c1.9-1.9,0-5.3-2.6-4.1c-0.6,0.3-1.9,0.3-2.8,0.3
	c-1.7,0.1-3.7,1-4.6,2.6C51.5,136.5,53,138.9,55.6,138.7z"/>
<path class="st5" d="M43.2,166.1c7.6-1.5,17-2.6,22.6-8.3c2.2-2.2,0-6.2-3.1-4.8c-7.3,3.4-16.3,0.4-23.1,5.4
	C36,161.1,39.1,166.9,43.2,166.1z"/>
<g>
	<path class="st6" d="M58.3,253c0.8-3.2,2.5-5.9,3.5-9c0.4-1.2,0.6-2.9,0.7-4.2c0.1-1.5-0.4-3-0.3-4.6c0.2-1.7,1.7-3.4,2.3-5
		c0.5-1.5,0.8-3.1,0.9-4.7c0.1-1.4,0.1-2.6-0.2-4c-0.3-1.5-0.6-2.7,0.2-4.1c0.4-0.7,0.9-1.2,1.1-1.9c0.4-1.2,0.2-2.1-0.1-3.2
		c-0.6-2,0.1-3.5,0.7-5.4c0.5-1.8,0.4-3.7,0.7-5.5c0.3-1.9,0.8-3.8,1.2-5.6c0.6-2.8,2-5.8,1.4-8.7c-0.3-1.5-0.7-2.9-1-4.3
		c-0.1-0.5-0.6-2.4-0.6-3.8c0.9-0.3,1.2-1.9,1.5-2.7c0.7-1.9,1.4-3.8,2.1-5.8c1.3-3.8,3.5-7.6,3.1-11.6c0-0.2-0.4-0.2-0.3,0
		c0.1,2.6-1,4.7-2.1,7c-0.8,1.7-1.4,3.5-2.1,5.3c-0.7,1.7-1.3,3.4-2,5.1c-0.3,0.7-0.9,1.6-0.8,2.4c-0.3,2,0.5,4.1,0.8,6.1
		c0.3,1.8,0.8,3.2,0.5,5.1c-0.3,1.9-0.9,3.9-1.4,5.8c-1,3.7-1.1,7.4-1.9,11.2c-0.3,1.3-1.2,2.7-1.1,4.1c0.2,1.8,1.1,3.3,0.1,5.1
		c-0.4,0.7-1,1.4-1.3,2.2c0,0-0.1-0.1-0.1-0.1c-3-0.6-5.9,0.9-9,0.3c-0.4-0.1-0.7,0.5-0.4,0.8c2.7,2.3,6.3-0.3,9.3-0.1c0,0,0,0,0,0
		c0,0.1,0,0.2,0,0.4c0.2,1.4,0.6,2.8,0.7,4.3c0.1,1.8-0.3,3.8-0.7,5.6c-0.5,2.1-1.8,3.8-2.4,5.8c-0.3,1.1,0.2,2.5,0.3,3.6
		c0.2,1.6-0.3,3.6-0.7,5.2c-0.7,3.2-2.9,5.8-2.9,9.1C58,253.2,58.3,253.2,58.3,253z"/>
	<path class="st6" d="M75.3,158.2c-0.1-0.8-0.5-1.4-0.9-2c-0.3-0.4-0.6-0.8-0.8-1.2c-0.1-0.2-0.1-0.5-0.1-0.7c0-0.1,0.2-0.8,0.3-0.9
		c0.3-0.2,0.4-0.6,0.2-0.9c-0.1-0.1-0.2-0.3-0.4-0.3c-0.4,0-0.8,0.2-0.8,0.7c0,0.3-0.1,0.6,0,0.9c0,0.1,0.2,0.3,0.2,0.5
		c0,0.4,0.2,0.7,0.4,1.1c0.6,1,1.5,1.8,1.7,2.9C75,158.4,75.3,158.4,75.3,158.2z"/>
	<path class="st6" d="M37.3,299.9c2-0.4,3.4-1.2,4.8-2.5c0.8-0.7,1-1.8,1.4-2.7c0.4-1.3-0.6-2.6,1-3.5c1.8-1.1,4.2-1.8,5.3-3.9
		c1.4-2.8,1.2-5.9,2.4-8.7c0.9-2.3,4.3-4,4.2-6.8c-0.1-1.3-0.6-2.5-1-3.7c-0.1-0.3-0.1-0.5-0.1-0.8c0.2-0.5,0.5-1,0.7-1.5
		c0,0,0,0,0,0c-0.2,0.3-0.4,0.6-0.6,0.9c0.4-1.4,1.5-3,2-4c0.9-2,1.6-4.8,0.7-6.9c-0.1-0.3-0.6-0.1-0.5,0.2c0.8,2.4-0.5,5.4-1.6,7.5
		c-0.9,1.6-1.9,3-1.6,4.8c-0.1,0.2-0.3,0.4-0.4,0.6c-0.1,0.1,0,0.3,0.1,0.3c0.2,0.2,0.2,0.4,0.2,0.7c0,0.4,0.5,0.6,0.8,0.5
		c0.2,0.6,0.3,1.2,0.3,1.9c-0.1,1.2-1.3,2.6-2.1,3.4c-1.7,1.9-2.4,3.5-2.9,6.1c-0.2,1.1-0.4,2.3-0.7,3.4c-0.4,1.6-1.2,2.3-2.3,3.3
		c-1.3,1.2-3.3,1.5-4.5,2.9c-0.3,0.3-0.3,0.9-0.3,1.3c0,1.7,0,2.8-1.2,4.2c-0.5,0.6-1.5,1.2-2.2,1.6c-0.4,0.2-0.9,0.3-1.3,0.4
		c0,0,0,0,0,0c-0.1-0.2-0.2-0.3-0.4-0.5c-2.9-1.6-2.5-3.9-2.8-6.9c-0.2-2.1-0.8-4.2-1.8-6c0.5,0,1,0,1.5,0.1c0.4,0,0.6-0.6,0.1-0.7
		c-0.8-0.2-1.5-0.3-2.3-0.6c-0.1-0.2-0.2-0.4-0.4-0.5c-1.6-2.3-1.4-5.1-1.6-7.8c-0.2-3.4-1.2-6.8-1.7-10.1c-0.5-2.9-0.6-5.6-0.3-8.5
		c0.1-0.6,0.1-1.2,0.1-1.7c1.4,1.5,4.4,1.5,6.1,2.3c0.8,0.4,1.3-0.8,0.6-1.2c-0.9-0.5-1.9-0.7-2.9-1c-1.4-0.4-2.5-1.1-3.7-1.9
		c0-1.3-0.1-2.6-0.4-3.8c-1.3-5.5-5.3-10.1-6.7-15.6c-0.3-1.2-0.4-2.5-0.4-3.7c0.9,0.6,1.9,1.2,2.7,1.7c1.2,0.8,2.1,1.7,3.5,2.2
		c1.5,0.6,3.2,0.5,4.7,0.9c0.1,0,0.2-0.1,0.1-0.2c-1.3-0.5-2.6-0.8-3.8-1.3c-1.4-0.5-2.3-1.5-3.3-2.4c-1.2-1.1-2.5-2-3.7-3.1
		c0.1-1.3,0.2-2.6,0.2-3.9c0.1-3.3-1.7-6.7-2.2-9.9c-0.4-2.9,0.3-5.9-0.2-8.8c-0.2-0.9-0.5-1.5-1-2.3c-0.2-0.4-0.6-0.7-0.9-1
		c-1.1-1-1-2.3-0.8-3.6c0.3-2.2,0.7-4.1,0.4-6.3c-0.1-0.8-0.3-1.8-0.7-2.5c-0.7-1.2-1.9-1.5-2.8-2.6c-2.2-2.7-0.5-5.6,0.3-8.4
		c0.5-1.7-0.4-3.3-0.7-5.1c-0.2-1.2-0.9-2.2-1.1-3.4c-0.1-1-0.1-2.2-0.1-3.3c0-2.2,0.6-4.4-0.8-6.3c-0.7-1-1.8-1.5-1.8-2.9
		c-0.1-1.5,1-2.2,1.3-3.5c0.2-0.8,0-1.7-0.2-2.6c-0.4-1.9-0.5-3.4-0.1-5.4c0.3-1.3,0.6-2.8,0.6-4.2c0.6,0.1,1.1,0.2,1.7,0.3
		c1.1,0.2,2.3,0.5,3.4,0.8c0.2,0.1,0.3-0.3,0.1-0.4c-1.6-0.6-3.4-1.4-5.2-1.6c-0.1-0.5-0.2-1-0.3-1.4c-0.3-0.9-1-1.6-1.5-2.4
		c-1.4-2-0.8-3.6,0.1-5.6c0.9-1.9,1-3.8,0.2-5.8c-0.4-1-1.1-1.8-1.7-2.6c-1.3-1.8-1.2-3.5-1-5.7c0.2-1.7,0.7-2.5,1.9-3.6
		c0.4-0.4,0.6-1,0.7-1.5c0.4-1.7-0.9-3.5-1.6-4.9c-0.5-1-0.7-2.1-1-3.2c-0.2-0.7-0.5-1.4-0.5-2.2c-0.1-0.7,0.6-1.9,0.9-2.7
		c0.2-0.5,0.2-1,0.1-1.4c0.8,0.2,1.6,0.3,2.4,0.2c2.9-0.5,6,0.1,8.9-0.6c0.6-0.1,0.3-1-0.3-0.9c-1.8,0.4-3.9,0.2-5.7,0
		C10.2,97.1,8.5,98,7,97.6c-0.5-0.1-1.1-0.4-1.7-0.7c-0.3-0.4-0.6-0.9-0.7-1.5c-0.5-2.6-1-5.6-1.2-8.2c-0.2-1.6-0.1-3.3,0.1-4.9
		c0.2-1.2,0.6-2.4,0.6-3.7C4.2,72.3,4.4,66,5,59.6c0.4-4.6,3.3-8.5,6.6-11.5c2-1.9,4.1-2.5,6.8-3c1.6-0.3,3-1,4.6-1
		c0.5,0.1,1,0.2,1.5,0.2c0.1,0,0.2,0.1,0.2,0.1c0.2,0.1,0.3,0,0.5,0c1.6,0.1,3.3-0.2,4.8-0.3c2.3-0.2,4.7,0.3,7,0.5
		c2.6,0.3,5.3,0.4,7.9,0.7c2.4,0.2,4.7,0.4,7.1,0.5c2.4,0.1,4.7,0.6,7.1,0.3c2-0.3,3.8-1.1,5.8-1.2c1-0.1,1.9,0.2,2.9,0.2
		c0.6,0,1.2-0.1,1.8-0.2c2.1,0.9,5.4,3,6.1,3.4c3.4,2.1,5.1,5,6.2,8.8c0.8,2.7,0,5.6,0.9,8.3c1.1,3.4,1.1,7-0.1,10.5
		c-0.1,0.3,0.1,0.5,0.3,0.6c2.9,1.8,0.2,5.1-0.8,7.3c-1.3,2.9-0.8,6.3-0.3,9.2c0.3,1.7,0.6,3.4,0.9,5.1c0.3,2-0.4,3.8-0.8,5.7
		c-0.4,1.7-0.4,3.1-0.4,4.8c0,2.2-0.4,4.3-0.6,6.4c-0.1,1.5-0.1,2.9-0.2,4.4c-0.1,1.9,0.5,3.8,0.3,5.6c-0.2,1.3-1.1,2.6-1.5,3.9
		c-0.6,1.9-0.3,3.8-0.6,5.8c-0.5,2.8-2.4,5.2-3.6,7.8c-0.5,0.2-1,0.4-1.5,0.6c-1.2,0.4-2.4,1.3-3.6,1.5c-1.6,0.2-3.3-0.1-4.5,1.2
		c-0.2,0.2,0,0.5,0.3,0.4c1.8-0.5,3.6-0.7,5.4-1.1c0.9-0.2,1.8-1,2.7-1.4c0.4-0.2,0.7-0.3,1.1-0.5c-0.1,0.2-0.2,0.5-0.3,0.7
		c-0.6,1.8-1,3.7-1.4,5.6c-0.3,1.6-1.3,2.6-1.1,4.3c0,0.1,0.2,0.1,0.2,0c-0.2-1.5,0.7-2.3,1-3.6c0.3-1.3,0.6-2.7,0.9-4
		c0.3-1.1,0.7-2.2,1.2-3.3c0,0,0,0,0,0c0,0,0.4-0.2,0.7-0.4c0,0.1,0.1,0.1,0.1,0.1c0.5-0.1,0.6-0.2,1-0.6c0.1-0.1,0-0.4-0.2-0.3
		c-0.4,0.2-0.9,0.4-1.3,0.5c0.9-1.6,1.9-3.2,2.5-4.9c0.3-0.8,0.8-1.6,1-2.5c0.4-1.3,0.2-3,0.3-4.3c0.3-2.3,2-4.2,2-6.6
		c0-1.3-0.4-2.6-0.3-3.9c0.1-1.6,0.1-3.2,0.3-4.8c0.3-2.7,0.7-5.4,0.6-8.2c-0.1-2.7,1.3-5.2,1.4-7.9c0.1-2.9-0.9-5.8-1.3-8.7
		c-0.3-2.9,0-5.4,1.3-8c0.7-1.4,1.5-2.8,1.5-4.4c0-0.6-0.3-1.2-0.6-1.7c-0.7-1-1-0.5-0.6-1.7c0.8-2.5,0.8-5.2,0.4-7.8
		c-0.2-1.2-0.7-2.3-0.9-3.6c-0.2-1.3-0.1-2.6-0.1-3.9c-0.1-2.4-0.8-4.9-1.8-7c-2.5-5-8.8-7.3-13.6-9.6c-0.3-0.1-0.6,0-0.7,0.2
		c-0.1,0.3-0.2,0.6-0.3,0.9c0,0,0,0,0,0c-0.5-0.1-0.9-0.2-1.4-0.3c-0.4-0.1-0.9,0-1.3,0c0,0,0-0.1-0.1-0.1c-0.3-0.4-0.3-0.5-0.7-0.7
		c-0.3-0.2-0.7-0.3-1,0.1c-1.3,1.7-4.5-2-5-2.9c-1.3-2.1-1.9-4.7-1.9-7.2c0-2.7-0.3-5.4,0.5-8c0.7-2.2,0.1-4.8,1.5-6.7
		c0.3-0.4-0.3-0.9-0.6-0.5C57.1,17.7,57,17.9,57,18c0.1-1.3-0.8-2.6-1.4-3.8c-0.1-0.2-0.4-0.3-0.5-0.2c0,0-0.1,0-0.1,0
		c0.1-1.3-0.2-2.8-0.4-4c-0.4-2.2-1.3-5-0.3-7.2c0.2-0.5,0-1.1-0.6-1.2c-1.5-0.3-2.7,0.3-4.1,0.8c-2.2,0.7-2.3-2.8-4.5-2.1
		c-1.3,0.4-1.6,2.4-2.1,3.4c-0.7,1.3-1,2-2.6,2.3c-2,0.4-3.1,0.4-4.6-1.3c-0.3-0.3-1-0.3-1.2,0.1c-1,1.4-1,3.1-0.8,4.8
		c-1.7,0.1-2.6,2-2.9,4c-0.3-0.4-0.7-0.7-1.2-1c-0.7-0.5-1.5,0.3-1.5,1c-0.2,2.3,0.8,4.5,1,6.8C28.2,19,28,16.7,28,15.3
		c0-1.6-0.2-3.6-1.6-4.7c-0.4-0.3-1.1-0.3-1.3,0.2c-0.8,1.9-0.1,3.4,0.8,5.1c0.6,1.1,0.5,2.4,0.4,3.7c0,0.7-0.1,1.4-0.2,2.1
		c-0.2,1-1.3-1-1.4-1.1c-0.5-0.8-2-0.2-1.6,0.8c1.7,4.1,4.6,7.8,3.9,12.5c-0.3,1.8-0.7,4-1.4,5.6c-0.3,0.6-0.9,1.9-0.6,2.6
		c0.3,0.6,1.3,1.1,1.8,0.4c0-0.1,0.1-0.1,0.1-0.2c0.2-0.3,0.2-0.5,0.2-0.8c0.1-0.1,0.2-0.8,0.3-1.1c0.2-0.6,0.4-1.2,0.5-1.7
		c0.5-2,1.1-4.1,1.1-6.1c0.1-3.3-1.3-6-2.8-8.8c0.5-0.1,0.9-0.5,1.1-1.3c0.1-0.3,0.2-0.6,0.2-1c0.4,0.7,1,1.4,1.9,1.7
		c0.5,0.2,1.2,0,1.3-0.6c0.3-1.9-0.4-3.8-0.7-5.7c0.1,0,0.3,0,0.4,0c0.1,0.7,0.2,1.3,0.3,1.8c0.1,0.4,1,1,1.4,0.5
		c0.1-0.1,0.1-0.2,0.1-0.2c0.7,1.4,1.3,2.9,1.9,4.4c0.3,0.7,0.5,1.4,0.7,2.1c0.1,0.8,0.2,1.6,0.4,2.4c0.1,0.9,0.5,1.6,1.1,2.4
		c0.1,0.2,0.3,0.3,0.5,0.4c0,0.2,0,0.4-0.1,0.5c-0.2,2.1,0.5,3.7,1.7,5.3c1.5,2.1-1.3,4.7-3.2,5.3c-0.5,0.2-0.7,0.6-0.7,1
		c-0.8-0.1-1.6-0.2-2.4-0.2c-3.3-0.3-8,1.5-10.9-0.7c-0.8-0.6-1.9,0.6-1,1.2c0.1,0.1,0.2,0.2,0.4,0.2c-0.5,0.1-1,0.2-1.5,0.3
		c-2.8,0.6-5.3,0.7-7.6,2.4c-4.5,3.4-7.8,8.3-8.3,14c-0.5,6-1.2,12.1-0.9,18.2c0.1,1.3-0.4,2.6-0.6,3.9c-0.2,1.3-0.2,2.6-0.2,3.8
		c0,3,0.8,5.9,1.2,8.8c0.1,0.6,0.2,1.2,0.4,1.8c-0.7-0.1-1.3,0.1-1.8,0.6c-0.4,0.5,0.1,1.3,0.7,1.1C2.9,98,3.5,98,4.2,98.1
		c0.2,0.3,0.5,0.6,0.9,0.8c0.2,0.2-0.9,2.5-1,3c-0.3,1,0.3,2.3,0.6,3.2c0.3,0.9,0.4,1.8,0.8,2.7c0.5,1,1.1,1.9,1.5,2.9
		c0.7,1.6,0.5,2.7-0.9,3.8c-0.6,0.5-0.8,1.3-1.1,2c-0.5,1.7-0.7,4.5,0,6.1c1.6,3.2,4.1,5.2,2.4,9.1c-0.8,1.9-1.6,3.5-0.7,5.5
		c0.4,0.9,1.1,1.6,1.6,2.4c0.4,0.6,0.7,1.3,0.7,1.9c-0.1,0-0.3,0-0.4,0c-0.3,0-0.4,0.4-0.1,0.5c0.2,0.1,0.4,0.1,0.5,0.2
		c0,0.9-0.2,1.9-0.3,2.8c-0.4,2.4-0.8,4.3-0.3,6.7c0.4,1.7,0.3,2.9-0.7,4.5c-0.5,0.8-0.5,1.9-0.3,2.7c0.2,0.7,0.5,1.1,1.1,1.6
		c1.2,1,1.6,2.4,1.6,3.9c0,2.5-0.3,4.9,0,7.4c0.1,1,0.6,2.3,0.9,3.2c0.2,0.6-0.1,1.2,0.2,1.8c1,2.1-0.7,4.6-0.8,6.9
		c-0.1,2.1,0.7,4,2.1,5.5c0.5,0.5,1.2,0.6,1.6,1.2c0.4,0.6,0.5,1.6,0.6,2.3c0.2,1.4,0.1,2.8-0.1,4.2c-0.3,1.6-1.1,4.3,0,5.8
		c0.8,1,2,1.8,2.2,3.2c0.3,1.7,0.1,3.4,0,5c-0.1,2.9,0.4,5.7,1.2,8.5c0.5,1.7,1.1,3.4,1.1,5.1c0,0.9,0,1.8-0.1,2.6
		c-0.5-0.4-1.4,0.2-1.1,0.9c0.2,0.5,0.6,1,1,1.4c0,0.2,0,0.4,0,0.5c-0.2,5.7,2.8,10.5,5.3,15.5c1.4,2.7,2.4,5.4,2.4,8.5
		c0,2.8-0.6,5.5-0.5,8.3c0.2,3.9,1.3,7.7,1.8,11.5c0.3,2.5,0,5.7,0.8,8.2c-0.7,1,0.1,2.3,1,2.9c0.2,0.1,0.3,0.2,0.5,0.2
		c0.5,0.9,1.1,1.9,1.4,2.9c0.7,2,0.9,4.2,0.9,6.3c0,2.2,1.1,3.8,2.7,5C35.7,300,36.7,300,37.3,299.9z M34.4,19.8
		c-0.4-1.1-1.1-2.9-2.1-4c0-0.9,0-1.8,0.2-2.7c0.2-1,0.7-1.6,1.4-1.8c0.3,2.1,0.7,4.3,0.9,6.4c0.1,1.1,0.1,2.3,0.1,3.5
		C34.8,20.8,34.6,20.3,34.4,19.8z M36.8,19.4c-0.1-2.4-0.6-4.8-0.7-7.2c-0.1-1.6-1.1-3.6-0.6-5.2c1.4,1.2,2.9,1.6,4.9,1.1
		c2.3-0.6,3.2-1.4,4.2-3.4c0.1-0.2,1.2-2.4,1.3-2.3c0.4,0.9,1.1,1.3,1.9,1.7c1.6,0.8,3.1-0.5,4.6-0.6C52,4.9,52.3,6.5,52.5,8
		c0.4,2.1,0.5,4.6,1.3,6.7c-0.4,0.3-0.8,0.6-1.2,0.9c-0.6,0.5-1.5,1.6-2.2,1.1c-0.8-0.6-1.6-0.4-2.4,0.1c-1.4,0.9-2.1,2.9-1.5,4.3
		c-2.4,0.6-4.3,2.6-4,5.3c-0.4,0.2-0.8,0.4-1.2,0.5c-0.9,0.3-1.9,0-2.8,0.3c-0.4,0.1-0.7,0.6-1,1.1C36.5,25.6,36.8,22,36.8,19.4z
		 M41.1,36.3c-0.5-0.8-1.1-1.6-1.6-2.4c-1-1.5-0.5-3.6,0.1-5.1c0.2-0.5,1.9-0.6,2.4-0.7c0.4-0.1,0.8-0.3,1.1-0.5c0.7,1.8,2.2,4,4,3
		c0.1,0,0.1-0.1,0.2-0.1c0.7,0.8,1.3,1.6,2,2.4c1.1,1.2,4.1,3.7,3.9,5.5c0,0.3,0.3,0.4,0.5,0.2c0.9-1.6-0.9-3.4-1.8-4.6
		c-2.3-2.9-4.7-5.8-7.2-8.5c-0.1-0.1-0.2-0.1-0.2-0.1c0.1-1.8,1.9-3,3.9-3.1c0.8,0,1-1.2,0.3-1.5c-2-0.9,0.8-4,1.4-3
		c0.1,0.2,0.4,0.3,0.7,0.2c0.9-0.2,1.6-0.8,2.3-1.4c0.1-0.1,0.9-0.9,1.6-1.3c0.1,0,0.1,0,0.1-0.1c0.2-0.1,0.4-0.2,0.5,0
		c0.6,1,1.4,2.2,1,3.5c-0.1,0.2,0.1,0.3,0.3,0.4c-0.7,1.9-0.6,4.2-1.3,6.2c-0.6,1.7-0.5,3.6-0.5,5.3c0,1.7,0,3.5,0.3,5.2
		c0.5,2.7,1.6,5.5,3.9,7.2c0.7,0.6,1.6,1,2.5,1.2c-2.4,0.6-4.4,0.6-6.8,0.3c-2.5-0.3-5.1-0.3-7.7-0.5c-3-0.3-6.1-0.6-9.1-0.9
		C40,41.7,42.6,38.8,41.1,36.3z"/>
	<path class="st6" d="M50,115.9c1.9,0.1,3.8,0.2,5.7,0.3c1.6,0.1,3.9-0.4,5.4,0.2c1,0.4,1.6,0.3,2.6,0.2c0.9-0.1,0.8-0.4,2.1-0.3
		c0.9,0.1,1.7,0.5,2.6,0.6c1,0.1,2.4-0.4,3.4-0.6c1.7-0.4,3.4-0.9,5.1-0.9c0,0,0,0,0,0c-2.7-0.7-5.1,0.3-7.8,0.6
		c-1.5,0.2-2.9-0.8-4.5-0.7c-0.6,0-1,0.2-1.6,0.2c-0.9,0-1.3-0.8-2-0.9c-3.3-0.8-6.9-1.2-10.3-1.4c-3.1-0.2-7.1-0.9-10,0.5
		c-0.5,0.3-0.4,1.1,0.1,1.4C43.4,116.4,47.1,115.8,50,115.9z"/>
	<path class="st6" d="M35.8,107.5c1.3,0.2,2.6-0.1,4-0.4c1.8-0.3,3.7-0.5,5.6-0.7c3.3-0.3,6.5-0.2,9.8,0.1c3.1,0.2,6.3,0.5,9.4,0.6
		c2.3,0.1,6.4-1.1,7.8,1.4c0.2,0.3,0.7,0,0.5-0.3c-0.9-1.9-3.2-2-5.1-2.1c-3.2-0.1-6.3-0.3-9.4-0.4c-3.9-0.2-7.6-1.1-11.5-1.1
		c-2.1,0-4.2,0.2-6.3,0.4c-1.6,0.2-3.5,0.3-4.9,1.3C35.1,106.6,35.2,107.4,35.8,107.5z"/>
	<path class="st6" d="M33.4,95.7c2.9,1,6.1,1.1,9.2,1.5c2.7,0.4,4.4,0.7,7-0.1c3.1-1,5.9-0.4,9.1-0.1c3,0.3,5.8,0.1,8.8,1
		c0.3,0.1,0.5-0.4,0.2-0.5c-2.4-0.9-4.9-1.3-7.5-1.4c-2.7-0.1-5.4-0.8-8.1-0.7c-1.3,0.1-2.5,0.7-3.8,0.8c-1.4,0.1-3.1-0.5-4.5-0.7
		c-3.3-0.6-6.9-1.5-10.3-0.9C32.8,94.7,32.7,95.5,33.4,95.7z"/>
	<path class="st6" d="M48.1,86.8c3.9,0.5,7.7,0.4,11.6,0.5c4.1,0.2,8.1,1.7,12.2,1.7c0.3,0,0.2-0.4,0-0.4c-3.9-0.1-7.5-1.6-11.4-1.8
		c-4.1-0.3-8.3-0.3-12.4-0.4C47.9,86.4,47.9,86.8,48.1,86.8z"/>
	<path class="st6" d="M59.7,80.2c3.9,0.2,7.5,1,11.2-0.2c4-1.2,8.2-3.2,12.5-2.3c0.4,0.1,0.4-0.6,0.1-0.6c-3.3-1.3-7.1,0.2-10.2,1.1
		c-2.2,0.6-4.1,1.5-6.4,1.6c-2.4,0.1-4.8-0.5-7.1-0.2C59.3,79.7,59.3,80.1,59.7,80.2z"/>
	<path class="st6" d="M28,64.1c3.1,1.1,6.6,0.7,9.8,0.9c3.1,0.1,6.3,1.5,9.4,1.2c1.2-0.1,2.5-0.3,3.7-0.6c1.8-0.5,3.6-0.3,5.4-0.6
		c2.6-0.3,5.2,0.4,7.7-0.2c0.2,0,0.1-0.3-0.1-0.3c-1.7,0.3-3.3-0.1-5-0.3c-1.1-0.1-2.2,0.1-3.3,0.2c-1.4,0.1-2.8,0-4.2,0.2
		c-1.4,0.2-2.8,0.5-4.3,0.7c-3,0.4-6.2-1.5-9.2-1.8c-3.2-0.4-6.6-0.7-9.8-0.5C27.4,63,27.4,63.9,28,64.1z"/>
	<path class="st6" d="M50.4,54.5c1.6,0.2,3.3-0.2,4.9-0.3c2.4-0.2,4.8-0.2,7.1,0c0.3,0,0.4-0.4,0.1-0.5c-3.7-0.9-8.6-1.4-12.2,0
		C50,53.8,50,54.4,50.4,54.5z"/>
	<path class="st6" d="M12.3,114c1.3,0.1,2.7,0.2,4,0.4c0.7,0.1,0.9-1,0.2-1.1c-1.2-0.2-2.4-0.3-3.7-0.4c-1.1-0.1-2.4-0.4-3.5-0.1
		c-0.3,0.1-0.3,0.6-0.1,0.7C10.3,114,11.3,113.9,12.3,114z"/>
	<path class="st6" d="M39.1,129.6c0.5-0.2,1.5,0.4,2.1,0.5c0.7,0.1,1.5,0,2.2-0.1c2-0.2,3.9-0.4,5.9-0.4c2,0,4,0.2,6,0.2
		c2.5,0,4.8-0.3,7.1,0.8c0.2,0.1,0.3-0.2,0.1-0.3c-1.6-0.9-3.3-1.1-5.1-1.2c-2.5-0.1-5-0.2-7.4-0.4c-2.5-0.2-4.9,0.1-7.3,0.2
		c-1.7,0.1-2.7-1.8-4.2-0.8C37.7,128.6,38.3,129.9,39.1,129.6z"/>
	<path class="st6" d="M44.6,145.4c4.1,0.1,8.8,0.9,12.5-1.2c0.1-0.1,0-0.2-0.1-0.2c-3.8,1.3-8.5,0.1-12.4-0.1
		c-4.5-0.2-9.1-1.5-13.6-1.2c-0.5,0-0.7,0.7-0.2,0.9C34.8,145.5,40.1,145.3,44.6,145.4z"/>
	<path class="st6" d="M36.9,157.7c2.3,0.3,4.5,1.1,6.8,1.3c2.7,0.3,6.6-0.1,8.9-1.8c0.2-0.2,0-0.5-0.3-0.4c-2.6,1.7-6.9,1.5-9.9,0.9
		c-2-0.4-4-1-6-1.4c-1.5-0.2-3.5-0.5-5-0.4c-0.4,0-0.5,0.6-0.2,0.8C33,157.7,34.9,157.5,36.9,157.7z"/>
	<path class="st6" d="M44.8,169.3c5.5,0.4,11.2-0.4,16.7-0.1c0.3,0,0.4-0.6,0-0.6c-5.5-0.5-11.3-0.7-16.8,0.1
		C44.3,168.8,44.4,169.3,44.8,169.3z"/>
	<path class="st6" d="M39.9,183.8c2.7,0.1,5.3,1,8,1c1.7,0,3.3-0.3,5-0.3c1.9,0.1,3.8,0.3,5.7,0.2c0.3,0,0.2-0.4,0-0.4
		c-1.9,0.1-3.8-0.2-5.7-0.4c-1.9-0.1-3.7,0.3-5.6,0c-2.5-0.3-5.2-1.9-7.6-0.7C39.4,183.4,39.6,183.8,39.9,183.8z"/>
	<path class="st6" d="M15.3,178.9c4.3,1.8,9.4,1.4,13.9,1.9c2.3,0.2,4.8,0,7.1,0.4c1.2,0.2,2.3,0.1,3-1c0.1-0.2-0.1-0.3-0.3-0.2
		c-1,1-3.9,0.1-5.3,0.1c-2.2,0-4.3-0.4-6.5-0.6c-2-0.2-4-0.2-6-0.5c-2.2-0.3-3.9-1.2-5.8-2.3c-0.8-0.4-1.5,0.3-1.6,1
		c0,0.2,0.1,0.4,0.1,0.6C14.2,178.8,14.8,179,15.3,178.9z"/>
	<path class="st6" d="M48.3,210c1.5-0.3,3-0.3,4.6-0.4c1.6-0.1,4.3-0.6,5.6,0.4c0,0,0.1,0,0.1-0.1c-1.9-1.8-5-1-7.4-1.2
		c-1.6-0.1-3.1,0.2-4.7,0.4c-2.1,0.3-4.1,0-6.2-0.4c-0.5-0.1-0.8,0.5-0.4,0.8C42.3,211.6,45.6,210.5,48.3,210z"/>
	<path class="st6" d="M22.6,208.3c1.8,0.6,3.8,0.8,5.7,1c0.4,0,0.5-0.5,0.1-0.6c-1.8-0.5-3.6-1.2-5.3-1.9c-1.3-0.5-2.6-1.5-4-1.4
		c-0.4,0-0.6,0.4-0.4,0.8C19.5,207.5,21.3,207.8,22.6,208.3z"/>
	<path class="st6" d="M53.1,236.2c1.3,0,2.6-0.1,4-0.3c1.1-0.2,4.2-0.7,4.5-2.1c0.1-0.5-0.4-0.9-0.8-0.7c-0.1,0-0.1,0-0.2,0.1
		c-0.2,0-0.2,0.2-0.2,0.4c0,0.1-1.4,0.6-1.6,0.6c-1,0.3-2.1,0.4-3.2,0.4c-1.7,0.1-4.2-0.5-5.7,0.5c-0.4,0.2-0.3,0.8,0.1,1
		C50.9,236.5,52,236.3,53.1,236.2z"/>
	<path class="st6" d="M40.1,251.2c1.5,0,3-0.4,4.5-0.5c1.3-0.1,2.6-0.2,3.9-0.5c2.8-0.6,5-1.7,7.5-2.9c0.4-0.2,0.1-0.9-0.3-0.7
		c-2.7,1.2-5.1,2.2-8.1,2.6c-2.5,0.3-5.4,0-7.7,1.2C39.5,250.7,39.8,251.2,40.1,251.2z"/>
	<path class="st6" d="M52.7,256.8c0.3-0.1,0-0.6-0.2-0.5c-1.5,0.6-3,1.1-4.6,1.3c-1.5,0.2-2.9-0.3-4.4-0.2c-0.4,0-0.6,0.5-0.3,0.7
		C45.8,260.1,50.3,258.2,52.7,256.8z"/>
	<path class="st6" d="M45.5,271.4c2.3-0.4,4.9-0.5,7.1-1.5c0.6-0.3,0.1-1.2-0.5-1c-0.9,0.3-1.8,0.3-2.7,0.4
		c-0.9,0.1-1.8,0.4-2.8,0.5c-0.8,0.1-1.5,0.2-2.3,0.3c-1,0.1-1.8-0.2-2.8-0.3c-0.3,0-0.7,0.2-0.5,0.6
		C41.7,272.1,43.9,271.7,45.5,271.4z"/>
	<path class="st6" d="M39.9,276.7C39.9,276.7,39.9,276.6,39.9,276.7C39.8,276.7,39.9,276.7,39.9,276.7z"/>
</g>
</svg>
