<?xml version="1.0" encoding="utf-8"?>
<!-- Generator: Adobe Illustrator 20.1.0, SVG Export Plug-In . SVG Version: 6.00 Build 0)  -->
<svg version="1.1" id="Layer_1" xmlns="http://www.w3.org/2000/svg" xmlns:xlink="http://www.w3.org/1999/xlink" x="0px" y="0px"
	 viewBox="0 0 85.3 300" style="enable-background:new 0 0 85.3 300;" xml:space="preserve">
<style type="text/css">
	.st0{fill:#ED6F1F;}
	.st1{fill:#EA5818;}
	.st2{fill:#EF7B28;}
	.st3{fill:#629C30;}
	.st4{fill:#8CBE27;}
	.st5{fill:#F5A268;}
	.st6{fill:#271111;}
</style>
<path class="st0" d="M35.1,33.6c-3.4-0.5-6.6-0.1-9.8,1.6c-4.7,2.6-7.8,8.3-10.5,12.8c-0.1,0.2-0.2,0.3-0.3,0.5
	c-0.4,0.6-0.8,1.1-1.2,1.7c-1.4,2.2-2.4,4.3-3,6.5c-3.3,7.8-5,16.5-3.6,24.9c-0.2,1.1-0.5,2.1-0.6,3.2C4.8,92.5,5.5,99.4,7,107
	c1.4,7,2.3,14.1,1.7,21.3c-0.3,3.6-0.6,7.1-0.3,10.7c0.3,3.1,1.3,6.2,1.6,9.3c0.6,6.3,0.1,12.5,1,18.8c0.5,3.2,1.2,6.4,2.2,9.6
	c0.1,0.4,0.3,0.8,0.6,1.2c0.4,4.2,0.8,8.4,1.5,12.7c0,0.1,0,0.1,0,0.2c0,2.1-0.1,4.2-0.1,6.3c-0.3,10.4,2.1,19.4,6.6,28.7
	c1.7,3.4,3,6.5,6,8.9c2.2,1.8,5.4,2.6,7.4,4.6c0.8,3.1,1.6,6.1,1.9,9.5c0.3,4.2,0.9,8.4,1.8,12.5c0.1,0.3,0.5,0.2,0.5,0
	c1.3-6.6,1.3-14.9-0.1-21.4c-0.9-4.3-2.4-8.9-1.1-13.3c1.1-3.7,2.5-7.6,3.2-11.3c1.6-8.5,2.9-16.8,3.1-25.5
	c0.3-9.7,1.9-19.1,2.2-28.7c0.8-20.1,2.4-40.1,3.3-60.2c0.4-9.1,1.6-17.9,3.7-26.8c1-4.2,2.2-8.5,3.4-12.6c0.2-0.5,0.3-0.8,0.3-1.1
	c0.3-0.4,0.7-0.7,1-1.1c1.7-1.8,3.1-4,4.4-6.1c3.5-6,0.3-13-5.1-16.4c-3.3-2-7.7-3-11.8-2.6c-0.9-0.5-1.9-0.9-3.1-1
	C40.3,32.7,37.7,32.9,35.1,33.6z"/>
<path class="st1" d="M33.6,36.6c-5.5,1.2-10.9,3.4-15.5,6.5c-5.1,3.4-7.5,10.5-1.6,14.2c1.4,0.9,3.6-0.4,3.4-2.1
	c0-0.1,0-0.3-0.1-0.4c0.4-0.2,0.8-0.5,1.3-0.7c2.2-0.8,4.5-1.4,6.7-2.1c4.1-1.2,6.5-1.4,9.1-1.4c1.9,0,3.7,0,5.6,0.1
	c0.4,0.4,0.9,0.8,1.5,1.1c2.2,1.2,4.7,1.3,6.6,3c0.3,0.3,0.6,0.6,0.9,1c-1.6,1.5-2.6,3.7-2.5,6.4c0.1,3.3,0.7,5,0,8
	c-0.8,3.4-2,6.6-2.6,10c-0.9,4.7,1.2,9,0.2,13.6c-1.1,5.4-0.9,10.6-1.6,16c-0.6,5.1-0.6,9.8-0.4,14.9c0.1,3.7-0.3,7.3,0.2,11
	c0.2,1.5,1,3.9,2.2,5.9c-1.3,3.7-1.6,7.9-2.2,11.8c-0.6,4.5-1.9,8.8-2.4,13.3c-0.8,6.5-0.4,13.2-1.4,19.7c-0.5,2.9-1.9,5.9-2.7,8.7
	c-1,3.7-1.3,7.5-1.1,11.3c0.2,5.3,2.2,12.5-0.3,17.5c-1,1.9-3.6,2.9-4.7,4.9c-1,1.9-0.2,4.2,0.2,6.2c0.4,2.3,3.1,3.2,5.1,2.7
	c0.3-0.1,0.6-0.1,0.9-0.2c1-0.2,2-1.1,2.4-2c4.2-0.4,8.1-2.2,10.5-5.9c1-1.6,1.8-3.3,2.4-5c5.1-3.9,5.6-9.9,5.1-16.1
	c-0.3-3.8-0.1-6.9,0.5-10.7c0.7-4.7,0.6-9.3,1.1-14c0.5-3.9,1-8.1,2-11.9c1.1-4,1.7-8.4,3.2-12.2c1.7-4.2,4-8,5.4-12.4
	c1.5-4.4,1.7-9.1,2-13.6c0.3-5.3,0.8-10.8,1.7-16.1c0.3-1,0.7-2,1-2.9c1.4-3.9,3.7-7.3,4.4-11.5c0.6-3.7,1.3-7.4,1.9-11.1
	c1.4-8.4,1.9-16.9,1.8-25.4C83.7,60.5,82,54.3,79,48.9c-2-3.6-5.7-7-9.9-8.6c-3.1-3.2-7.8-5.3-12.1-6C49.2,33.1,41.2,35,33.6,36.6z"
	/>
<path class="st2" d="M17.7,69.2c-5.7,5.3-4.7,13.2-4.4,20.3c0.3,6.5-1.3,12.9-0.8,19.5c0.6,7.2-0.2,14.3-0.3,21.5
	c-0.1,7.2,0.9,14.5,1.1,21.7c0.2,6.4,2.3,12.6,2.5,19c0.1,6.5,2.9,12.1,2.8,18.7c-0.1,3.3-0.1,6.4,0.3,9.7c0.4,3.4,2.2,6.5,3.2,9.9
	c0.8,3-0.1,6.6,1.6,9.3c1.7,2.8,3.8,5.2,5.9,7.5c2.5,2.7,6.3-0.5,5.6-3.5c-0.8-3.5-1.4-6.3-1-9.9c0.3-3.1,0.5-5.9,0.1-9
	c-0.4-3-1.1-5.7-0.8-8.7c0.3-3.2,1-6.5,1.2-9.7c0.3-5.6-0.8-11-0.7-16.6c0.1-2.9-0.7-5.8-1.2-8.6c-0.7-3.4-0.3-7.1-0.3-10.6
	c0.1-6.6-0.3-13.2,0-19.8c0.3-6.6,1.3-13.1,1.2-19.7c-0.1-11.9,5.1-24.6,2.3-36.5C34.1,64.9,23.4,64,17.7,69.2z"/>
<path class="st3" d="M53.9,4.6c-0.4,0.6-0.7,1.3-0.9,1.9c-3.4-4.8-11.5-2.4-11.7,2.8c-0.6,2.4-0.3,5.2,0.5,7.9
	c-0.2-0.2-0.4-0.3-0.5-0.5c-3.8-5.2-11.2-0.5-8.4,5.2c0.4,0.8,0.8,1.4,1.3,2c0.3,1.3,1.1,2.5,2.2,3.1c0.6,0.3,1.1,0.5,1.7,0.8
	c0,0.1-0.1,0.2-0.1,0.3c-0.6,2.2,1.4,3.5,3.2,3.2c0,0.1,0,0.1,0,0.2c1.2,4.5,6,4.9,9.9,4.5c2-0.2,4-0.5,6-0.9
	c-0.8,0.2-0.1,0.1,0.1,0.1c0,0,0,0,0,0c0.3,0,0.5,0.1,0.8,0.1c4.9,1,8.1-6.1,3.6-8.6c0.5-0.8,0.9-1.6,1.3-2.4
	c4.5-5.8,5.4-11.2,3.7-18.5C65.2-0.4,56.7-0.2,53.9,4.6z"/>
<path class="st4" d="M49,3.9c-3.1,2.9-1.9,7-2.6,10.6c-0.3,1.4-0.6,2.8-0.8,4.1c-1.4-2.3-4.7-1.9-6,0.3c-1.5,2.6,0,6.2,0.3,9
	c0.2,2.1,2.8,2.7,3.9,0.9c0.5-0.9,1.1-1.9,1.6-3c0.1,0.4,0.1,0.7,0.2,1.1c0.3,1.3,1.5,2.3,2.8,2.6c0.5,0.1,1,0.2,1.5,0
	c3-0.7,2.9-3.7,4.1-6c0.6-1.1,1.1-2.4,1.6-3.6c0.7,0.9,1.7,1.6,3,1.5c2.3-0.1,4.1-2.4,3.4-4.7c-0.3-1-0.9-1.7-1.7-2.3
	c-0.2-0.2-0.4-0.3-0.6-0.4c0,0,0,0-0.1,0c0,0,0,0,0.1,0c-0.1,0-0.1-0.1-0.2-0.1c-0.7-0.3-1.4-0.4-2.1-0.3c0.1-0.9,0.1-1.8,0.2-2.7
	c0.2-1.2,0.8-2.2,0.7-3.5c0-0.9-0.3-1.8-0.8-2.6c0,0,0,0.1,0,0.1c-0.3-0.4-0.6-0.8-0.9-1.2C54.6,1.3,51,2.1,49,3.9z"/>
<path class="st5" d="M23.8,125.9c-7,8.9-4.3,20.3-3.3,30.6c0.5,5.4,0.5,11,1.4,16.3c1.2,6.8,3.1,13.5,3.5,20.4
	c0.1,1.5,2.2,1.4,2.3-0.1c0.5-10.7,2.1-21.2,2-31.9c0-5.2,0.1-10.2,0.5-15.4c0.4-5.1,2.2-9.8,3.2-14.8
	C34.5,125.8,27.5,121.3,23.8,125.9z"/>
<g>
	<path class="st6" d="M17.3,73.7c-3.6-1.5-7.9,3-10.1,5.3c-0.7,0.7,0.3,2,1,1.2c2.7-2.7,5.3-4.6,9-5.7
		C17.6,74.4,17.7,73.9,17.3,73.7z"/>
	<path class="st6" d="M61.2,84c-1.7-0.1-3.2-0.7-4.9-0.8c-1.2,0-2.3,0.1-3.3,0.5c-0.2-0.1-0.4-0.1-0.6-0.1c0.2-0.1-1-0.8-1.1-0.8
		c-0.8-0.3-1.6-0.5-2.5-0.6c-1.9-0.2-3.9,0-5.9,0c-0.5,0-0.6,0.8-0.1,0.9c1.7,0.1,3.5-0.1,5.2,0.1c1.1,0.1,2.2,0.3,3.1,0.8
		c0.7-0.3,0.8-0.3,0.5,0.1c0,0.1-0.1,0.1-0.1,0.2c-1.3,0.6-0.5,2.8,0.9,2.4c2.9-1,6.6,0,9.1-1.8C61.9,84.6,61.6,84,61.2,84z"/>
	<path class="st6" d="M52.6,69.8C50,70,47.1,69.3,44.5,69c-2.5-0.3-5,0.1-7.3,1.1c-0.2,0.1,0,0.3,0.1,0.2c1.6-0.6,3.2-0.9,4.9-1
		c1.2-0.1,1.9,0.9,3,0.9c2.6,0.2,4.9,1.9,7.6,1.6C53.9,71.6,53.7,69.8,52.6,69.8z"/>
	<g>
		<path class="st6" d="M49.3,69.1C49.3,69.1,49.3,69.2,49.3,69.1c0.4-0.2,0.8-0.4,1.2-0.6C50.1,68.7,49.7,68.9,49.3,69.1z"/>
		<path class="st6" d="M69,69.6c-4.4-1.9-10.2-3.1-15.2-2.1c5-0.8,10.3,1.5,15.1,2.4C69.1,69.9,69.2,69.7,69,69.6z"/>
		<path class="st6" d="M50.5,68.5c1.1-0.5,2.2-0.8,3.3-1C52.7,67.6,51.5,68,50.5,68.5z"/>
	</g>
	<path class="st6" d="M47,63.1c-1.3-0.8-2.7-1-4.1-0.9c0-0.1,0-0.1,0-0.2c-0.3-0.5-0.9-0.7-1.4-0.9c-0.7-0.3-1.3-0.3-2,0
		c-0.7,0.3-0.2,1.3,0.5,1c0.5-0.2,1,0.1,1.5,0.3c-0.1,0-0.3,0-0.4,0.1c-2.8,0.5-5.4-0.6-8.3,0.5c-0.6,0.2-0.1,1,0.4,0.8
		c2.3-0.8,4.8-0.4,7.2,0c0.7,0.1,2.1-0.3,2.9-0.3c1.2,0,2.4,0.3,3.5,0.4C47.1,63.9,47.3,63.3,47,63.1z"/>
	<path class="st6" d="M21.1,63.5c-1.8-2.3-6,0.6-7.5,2c-0.8,0.7,0.3,2,1.1,1.3c0.8-0.7,1.6-1.2,2.6-1.7c1.2-0.6,2.3-0.3,3.5-0.7
		C21.2,64.3,21.4,63.8,21.1,63.5z"/>
	<path class="st6" d="M32.5,112c-0.9-0.3-1.9-0.1-2.8,0c-1.5,0.2-2.9,0.6-4.5,0.6c-0.5,0-0.6,0.8-0.1,0.8c1.1,0,2.1-0.1,3.2-0.2
		c1.3-0.2,2.8-0.2,4.1-0.5C32.7,112.6,32.8,112.1,32.5,112z"/>
	<path class="st6" d="M45.3,112.2c-0.6-1-2.4-0.9-3.4-1c-1.4-0.2-3-0.3-4.3,0.3c-0.5,0.2-0.1,0.9,0.4,0.7c1.2-0.4,2.7-0.2,3.9,0
		c0.9,0.1,2.2,0.9,3.2,0.6C45.2,112.8,45.5,112.5,45.3,112.2z"/>
	<path class="st6" d="M50.7,112.3c-0.7-0.2-1.4,0-2,0.4c-0.4,0.3-0.3,1,0.3,0.9c0.5-0.1,0.8-0.1,1.2,0.1c0.5,0.2,1,0.7,1.6,0.6
		c0.2-0.1,0.4-0.2,0.4-0.5C52.3,113,51.3,112.5,50.7,112.3z"/>
	<path class="st6" d="M50.8,131.3c-2.3-2-6.5-1.8-9.4-1.7c-3.2,0.1-6.5,2-9.6,1.1c-1.1-0.3-1.7,1.4-0.6,1.7c2.6,0.8,5,0,7.6-0.5
		c3.9-0.9,7.7,0.8,11.6,0.6C51,132.4,51.3,131.7,50.8,131.3z"/>
	<path class="st6" d="M27.2,149.5c-2.5-0.9-5.4-1.5-7.9-0.5c-0.5,0.2-0.1,1,0.4,0.8c2.4-0.9,5-0.1,7.4,0.2
		C27.4,150,27.5,149.6,27.2,149.5z"/>
	<path class="st6" d="M46.1,170.5c-2.9-1.7-6.3,0.3-9.3-0.8c-0.1,0-0.2,0.1-0.1,0.2c1.1,0.8,2.4,0.8,3.7,0.8c1.8,0,3.7,0.1,5.5,0.3
		C46.2,171,46.3,170.6,46.1,170.5z"/>
	<path class="st6" d="M47.2,185.6c-5.4-3.6-11.4-1.4-17.2-0.4c-0.1,0-0.1,0.2,0,0.2c2.5-0.4,5-0.8,7.5-1.1c3.4-0.4,6.3,0.7,9.5,1.7
		C47.2,186.1,47.4,185.8,47.2,185.6z"/>
	<path class="st6" d="M45.5,188.9c-1.8-0.6-4.1-0.7-6-0.6c-0.4,0-0.3,0.6,0.1,0.6c2-0.2,3.8,0.4,5.8,0.4
		C45.6,189.3,45.7,188.9,45.5,188.9z"/>
	<path class="st6" d="M22.3,108.9c-1.6-0.3-3.4-0.5-5.1-0.7c-1-0.1-1.9-0.4-2.9-0.3c-1.2,0.2-2.3,0.5-3.5,0.4
		c-0.6,0-0.6,0.8-0.1,0.9c0.9,0.1,1.7,0.1,2.6-0.1c1.3-0.2,2.5,0.2,3.8,0.3c1.8,0.2,3.6,1.1,5.4,0.2C22.9,109.6,22.7,109,22.3,108.9
		z"/>
	<path class="st6" d="M17.2,96.9c-2.5-1.4-7.8-0.6-8.8,2.4c0,0,0,0,0,0c0,0.1,0,0.1,0,0.2c0,0.1,0,0.1-0.1,0.2c0,0,0,0.1,0,0.1
		c0,0,0,0,0,0c0,0,0,0,0,0c0,0.3,0.3,0.5,0.6,0.3c1.3-0.9,2.4-1.6,4-1.9c1.4-0.3,2.8-0.1,4.1-0.3C17.5,97.9,17.6,97.1,17.2,96.9z"/>
	<path class="st6" d="M44.7,217.2c-1.9-1.7-5.6-2.2-8.1-2.2c-1.7,0-3-0.2-4.6,0.2c-1.2,0.3-1,1-2.6,0.9c-0.3,0-1.4,0.7-1.6,0.8
		c-0.2,0.1,0,0.3,0.1,0.2c2.3-0.8,5.6-1.4,7.9-1.1c2.9,0.4,5.6,1.6,8.5,2.2C44.8,218.3,45.2,217.6,44.7,217.2z"/>
	<path class="st6" d="M22.4,202c-2.1,1.3-8.5,0.8-7.4,4.9c0.1,0.2,0.4,0.3,0.5,0c0.3-0.8,0.3-1.6,1-2.3c0.7-0.6,1.7-0.7,2.6-0.9
		c1.3-0.2,2.6-0.4,3.7-1.1C23.2,202.5,22.8,201.7,22.4,202z"/>
	<path class="st6" d="M19,183.1l-1.2,0.5c-0.5,0.3-1.2,0.5-1.5,1c-0.2,0.3-0.1,0.7,0.3,0.8c0.6,0.1,1.1-0.1,1.7-0.4
		c0.5-0.2,0.9-0.4,1.4-0.6C20.6,184.1,19.9,182.7,19,183.1z"/>
	<path class="st6" d="M58.3,155.5c-2.3-1.7-5.9-3.4-8.8-4c-3.1-0.7-6.4,1.8-9,3.2c-0.3,0.2-0.1,0.6,0.2,0.5
		c3.4-1.4,6.6-3.5,10.4-1.9c2.3,0.9,4.3,2.8,6.8,3.2C58.5,156.4,58.7,155.8,58.3,155.5z"/>
	<path class="st6" d="M70.9,2.9c-2.1,0.9-3.8,0.9-6,0.4C63.8,3,63.2,4.8,64.3,5c0.1,0,0.1,0,0.2,0c-0.1,0-0.2,0.1-0.3,0.2
		c-2.4,3.2-3.1,7.7-4.4,11.6c-0.1-0.1-0.1-0.2-0.3-0.3c-0.7-0.3-1.3-0.7-2-1c-0.5-0.3-1.2-0.2-1.5,0.3c-0.4,0.6-0.1,1.5,0.6,1.7
		c0.7,0.2,1.5,0.4,2.2,0.6c0.2,0.1,0.4,0,0.6,0c-0.1,0.3-0.2,0.5-0.3,0.8c-1.1,2.6-2.7,5.9-0.9,8.5c0.3,0.4,1,0,0.8-0.5
		c-1.2-2.8,1.2-6.6,2.2-9.2c0.8-2,1.3-4.1,2-6.1c0.7-1.9,1.7-3.9,1.8-5.9c0-0.2-0.1-0.3-0.2-0.3c1.7,0.3,3.2,0.4,4.8,0.1
		c-0.3,0.8-0.5,1.6-0.7,2.5c-0.3,1.8-0.2,3.6-0.5,5.4c0,0.2,0.3,0.3,0.4,0.1c1.5-2.8,1.5-6.3,3.3-9C72.5,3.4,71.7,2.5,70.9,2.9z"/>
	<path class="st6" d="M63.8,34.5C63.8,34.5,63.8,34.6,63.8,34.5C63.9,34.5,63.9,34.5,63.8,34.5z"/>
	<g>
		<path class="st6" d="M77,90.6c0.1,0.1,0.2,0.1,0.3,0.2C77.2,90.7,77.1,90.6,77,90.6C77,90.5,76.9,90.5,77,90.6z"/>
		<path class="st6" d="M78.4,92c-0.3-0.4-0.7-0.9-1.1-1.2C77.7,91.1,78,91.5,78.4,92z"/>
		<path class="st6" d="M67.3,8.2c-0.2,0.5-0.4,0.9-0.6,1.4c-0.2,0-0.4,0.1-0.5,0.3c-0.1,0.5-0.2,0.9-0.3,1.4c-1.4,3-2.7,6-3.4,9.2
			c-0.6,2.6-0.7,5.4-1.1,8.1c0,0.2-0.1,0.6-0.2,1.2c0,0-0.1-0.1-0.1-0.1c-0.6-0.5-1.3,0.5-0.7,1c0.2,0.2,0.4,0.3,0.6,0.5
			c-0.1,1-0.2,2.3-0.3,3.4c-1-0.2-2.1-0.4-3.2-0.6c-0.6-0.1-1.1-0.2-1.6-0.3c-0.3-0.6-0.5-1.1-0.8-1.6c0.1,0,0.2,0,0.3,0.1
			c0.5,0.1,0.7,0.6,1.3,0.4c0.1,0,0.1,0,0.1-0.1c0.1,0.1,0.2,0.1,0.4,0.2c0.4,0.2,0.6-0.3,0.5-0.6c0.6-0.2,1.1-0.8,0.7-1.6
			c-1-2.2-1.6-4.5-2.6-6.7c-1.1-2.3-2.4-4.4-2.9-7c-0.7-3.4-0.6-7.4,0.4-10.9c0.6,0.3,1,0.7,1.6,1c0.3,0.2,0.6-0.1,0.8-0.3
			c0,0,0,0,0.1-0.1c0,0.5,0.1,0.9,0.3,1.3c0.1,0.1,0.1,0.2,0.2,0.3c-0.1,0.1-0.2,0.2-0.3,0.2c-0.1,0.1,0,0.2,0.1,0.2
			c0.2-0.1,0.3-0.2,0.5-0.3c0.3,0.1,0.6,0.1,0.9-0.2c0,0,0.1-0.1,0.1-0.1c0.6-0.1,1.2,0,1.8,0.2c0.7,0.2,1.6,0.7,2.4,0.5
			c0.2-0.1,0.3-0.3,0.1-0.5c-0.7-0.6-2.2-0.7-3.1-0.8c-0.2,0-0.5,0-0.7,0c0.2-0.3,0.4-0.6,0.5-0.9C59.2,7,60,7.4,60.8,7.5
			c2.4,0.5,2-3.3-0.2-2.4c-0.6,0.2-1.2,0.4-1.8,0.6c0-0.1,0.1-0.2,0.1-0.3c0.4-1,0.8-2.3,0.7-3.4c0-0.8-0.9-1.5-1.6-1
			c0-0.1-0.1-0.2-0.3-0.3c-5-1.8-11.4,1.1-15.7,3.5c-0.8,0.4-0.2,1.7,0.6,1.3c2.5-1.4,5-2.5,7.8-3.2c2.3-0.6,4.6-0.3,7-0.6
			c-0.7,0.9-1.4,2.2-1.6,3.5C55.8,5,55.7,5,55.6,5c-0.2-0.7-0.5-1.4-0.9-2c-0.3-0.5-0.8-0.4-1,0c-0.2,0-0.4,0.1-0.5,0.3
			c-0.1,0.1-0.1,0.2-0.2,0.4c-0.8-0.2-1.6-0.3-2.2-0.2c-1.4,0.1-2.7,0.4-4,0.8c-1,0.3-2.6,0.7-3.2,1.6l0,0c-0.2,0.4-0.2,1.1,0.4,1.3
			c-0.5,1.6-0.9,3.3-1.2,5c0.1-0.6-0.1-1.2-0.1-1.8c0-0.5,0-1.1,0-1.6c0.3-0.1,0.6-0.2,0.8-0.4c0.2-0.2,0.1-0.6-0.2-0.6
			c-0.2,0-0.3,0-0.5,0c0-0.1,0-0.1,0-0.2c0.1-1.3-2-1.4-2-0.1c0,0.2,0,0.4-0.1,0.7c-0.8,0.1-1.5,0.2-2.2,0.5
			c-0.4,0.2-0.1,0.8,0.3,0.6C39.4,9,40,8.9,40.6,8.9c-0.1,1.6-0.2,3.6,1.2,4.1c0.3,0.1,0.6,0,0.7-0.2c0.1-0.1,0.1-0.2,0.1-0.4
			c-0.3,1.7-0.6,3.4-0.8,5.2c-0.1-0.8-0.4-1.7-0.6-2.3c-0.6-1.8-1.6-3.5-2.4-5.3c-0.6-1.2-2.4-0.3-1.9,0.9c0.7,1.5,1.4,2.9,2,4.4
			c0.3,0.8,0.5,1.6,0.6,2.5c0.1,0.8-0.1,1.3,0.4,2c0.3,0.4,0.8,0.3,1.1,0.1c0.3-0.2,0.5-0.5,0.6-0.8c-0.2,4.3,0.3,8.6,2,12.7
			c-1.1,0-2.3,0-3.4,0c-1.2-2.4-2.7-4.6-4.3-6.8c-1-1.4-2-2.7-3-4.1c-1.2-1.6-1.9-3.6-3.3-5.1c-0.1-0.1-0.2-0.2-0.3-0.2
			c0.1,0,0.1,0,0.2-0.1c0.8-0.3,1.5-0.7,2.3-1c1,0.5,1.9,1.1,2.7,1.8c1.3,1.1,2.2,2.4,3.5,3.5c0.2,0.2,0.6,0,0.5-0.3
			c-0.5-1.1-1.4-1.9-2.3-2.6c-1.3-1.2-2.7-2.2-3.8-3.6C32.3,13,32,13,31.7,13.1c-0.9,0.4-1.7,0.8-2.6,1.2c-0.7,0.3-0.4,1.2,0.2,1.3
			c-0.3,0.1-0.6,0.3-0.5,0.7c0.4,2.7,2.5,5.2,4.1,7.4c1.9,2.7,3.9,5.3,5.5,8.1c-1.2,0.1-2.4,0.1-3.6,0.3c-2.7,0.3-5.5,0.4-7.8,2
			c-0.9,0.6-2,1.4-2.9,2.3c-0.2-0.2-0.5-0.3-0.8-0.1c-2.5,1-3.7,3.2-4.9,5.5c-2,3.7-5.9,5.7-8,9.3c-1.6,2.9-2.5,6.2-3.3,9.4
			c-0.9,3.5-2,7-2.4,10.6c-0.8,7.6-0.6,15.6-0.3,23.3c0.2,4,0.6,8,0.9,11.9c0.1,1.9,0,3.9,0,5.8c0.1,2.1,0.8,4.2,0.9,6.3
			c0.1,3.7,0,7.4,0.2,11.2c0.2,4.6,0.5,9.2,0.7,13.8c0.2,4.1,0.3,8.1,0.6,12.1c-2.7,1-5.2,2.6-7.6,4.2c-0.3,0.2,0,0.8,0.3,0.7
			c2.7-0.8,5-2.2,7.3-3.6c0.3,3.8,0.8,7.5,1.6,11.3c2,8.7,3,17.5,2.7,26.4c-0.2,7.9,1.3,15.3,4,22.8c2.2,6.2,5.2,12.3,10.1,16.7
			c2.8,2.6,5.6,4.6,7.6,8c2.1,3.7,2.9,8,3.4,12.1c1,8,1.5,16.1,2.1,24.2c0.3,3.8,1.1,7.5,1.9,11.2c0.3,1.4,0.5,2.9,1,4.2
			c0.7,1.7,1.5,3.3,1.8,5.1c-0.1,0.2-0.2,0.4-0.1,0.6c0.1,0.2,0.1,0.3,0.2,0.5c0.2,0.5,1.1,0.4,1.1-0.2c0-3.1-1.8-5.8-2.2-8.8
			c-0.6-3.5-1.4-7-1.9-10.5c-0.1-6.8,0.4-13.8,0.2-20.6c-0.1-4.2-0.6-8.4-1.4-12.5c-0.2-0.8-0.3-1.6-0.5-2.4
			c2.1,0.5,3.9,1.4,5.4,2.9c0.2,0.2,0.7,0.1,0.6-0.3c-0.4-2.5-4.1-3.3-6.3-3.7c-0.1-0.4-0.2-0.7-0.3-1.1c0.4,0,0.8-0.3,0.9-0.7
			c0.5-1.2,0.5-2.5,0.5-3.8c0-1.3,2.9-2.1,3.9-2.5c3.7-1.3,6.6-3.7,9.3-6.4c2.1-2,3.7-4.3,4.4-7.1c0.8-3,1.7-6.2,2.2-9.3
			c0.3-1.9,0-4,0-6c0.1-2.1,0.1-4.2,0.2-6.3c0.2-4.4,0.4-8.7,1.3-13c1.7-7.5,2.5-15.6,5.7-22.5c2.8-5.9,4-12.8,5.1-19.5
			c0.1,0.4,0.3,0.8,0.5,1.2c0.1,0.2,0.4,0.1,0.4-0.1c-0.3-1.8-0.2-3.6-0.1-5.4l0-0.1c1.1-6.4,2.2-12.7,3.6-18.9
			c0.1-0.1,0.1-0.3,0.1-0.4c0.5-2.3,1.1-4.6,1.7-6.9c2.1-8,4.2-16.1,5.7-24.3c1.4-8,1-16-0.5-24c-1.4-7.8-4.4-15.8-8.5-22.6
			c-2.9-4.7-7.1-7.2-12-8.6c-0.3-0.8-0.4-1.7-0.4-2.5c0.4,0.3,0.9,0.7,1.3,0.7c0.4,0,0.6-0.4,0.5-0.8c-0.2-0.7-1.2-1.1-1.8-1.5l0,0
			c0.1-1.3,0.4-2.6,0.6-3.9c0.1-0.4,0.2-0.9,0.2-1.3c0.1,0,0.3,0,0.4-0.1c0.4-0.2,0.2-0.9-0.3-0.8c0,0,0,0,0,0
			c0.8-4.7,1.8-9.3,2.8-14c0.4-0.9,0.9-1.8,1.3-2.7C68.5,8,67.6,7.7,67.3,8.2z M61.4,34.3c0-0.9,0.1-1.7,0.2-2.6
			c0,0,0.1,0.1,0.1,0.1c-0.1,1.1-0.2,2.2,0,3.1c-0.1,0-0.2-0.1-0.3-0.1C61.3,34.6,61.4,34.5,61.4,34.3z M60.6,36.4
			c0,0.2,0,0.4,0,0.6c0,0,0,0,0,0c-0.2-0.2-0.4-0.4-0.5-0.7C60.3,36.3,60.4,36.4,60.6,36.4z M61.5,39c0.1,0,0.1-0.1,0.1-0.1
			c0.1,0.1,0.2,0.2,0.3,0.4c0.8,0.9,1.5,2.1,2,3.2c-0.6-0.2-1.2-0.4-1.7-0.6c-0.1-0.2-0.2-0.3-0.3-0.5c-0.6-1-1.5-2.3-2.6-3.4
			c0.5,0.1,1,0.2,1.5,0.3C60.9,38.8,61.1,39.1,61.5,39z M72,47.6c-0.9-1.7-1.9-3.3-3-4.8c1,1,2,2.1,2.9,3c1.4,1.3,2,3.3,2.8,5
			C73.9,49.6,73,48.5,72,47.6z M76.4,55.9c0.2,0.7,0.4,1.5,0.5,2.3c-0.6-0.5-1.1-1-1.7-1.5c-0.1-0.3-0.2-0.7-0.2-1
			c-0.2-0.7-0.4-1.5-0.6-2.2c0.4,0.7,0.8,1.3,1.2,2C75.8,55.9,76.1,56,76.4,55.9z M77.2,59.2c0.6,2.8,0.9,5.7,1.1,8.5
			c-0.5-0.5-1-1-1.5-1.4c-0.2-3-0.7-6-1.4-8.7C76,58.1,76.6,58.6,77.2,59.2z M73.6,55.4c-1-0.8-2.1-1.5-3.1-2.1
			c-0.2-0.1-0.4,0.2-0.2,0.3c1.2,0.8,2.3,1.7,3.5,2.6c0.1,0.2,0.1,0.5,0.2,0.7c0.6,2.6,0.8,5.2,0.9,7.8c-1.4-1-2.8-1.9-4.3-2.7
			c-0.1-4.3-0.7-8.7-1.1-12.9c-0.1-1-1.7-0.7-1.6,0.3c-0.5-1.2-1.1-2.4-1.6-3.6c-0.2-0.4-0.3-0.7-0.5-1.1c2.4,1.4,4.5,3.3,6.4,5.5
			C72.6,51.9,73.2,53.6,73.6,55.4z M64.7,42.8c-0.4-0.8-0.8-1.5-1.2-2.2c-0.4-0.7-0.9-1.3-1.4-1.9c1.4,0.4,2.7,1,4,1.7
			c0,0,0,0,0,0.1c1.5,1.7,2.8,3.5,3.8,5.4C68.4,44.6,66.6,43.6,64.7,42.8z M59.4,36.1c0.1,0.2,0.3,0.5,0.5,0.7
			c-0.8-0.1-1.5-0.2-2.3-0.3c-0.5-0.3-1-0.6-1.5-0.8c0.2,0,0.4-0.1,0.4-0.3C57.5,35.7,58.4,35.9,59.4,36.1z M54.2,27.3
			c0.3,1,0.6,2.4,1.1,3.6c-0.4,0-0.7,0-1.1,0c-0.6-1-1.3-2.1-1.8-3.1c-0.3-0.5-0.5-1.1-0.7-1.6c0.7,0.3,1.5,0.5,2.3,0.5
			C54.1,26.9,54.2,27.1,54.2,27.3z M45.6,7.7c0.1-0.2,0-0.5-0.1-0.6c0.3-0.1,0.6-0.3,0.9-0.4c1.1-0.4,2.1-0.6,3.2-0.8
			c0.8-0.1,1.7-0.1,2.5,0c-1,3.2-1.5,7-1.2,10.2c0.2,2.3,0.9,4.4,1.9,6.5c0.2,0.9,0.5,1.8,0.7,2.6c-0.6-0.1-1.2-0.3-1.7-0.7
			c-0.3-0.2-0.6-0.2-0.8,0c-0.8-2.5-1.3-5.2-1.4-7.8c0-0.2-0.3-0.2-0.3,0c0,2.9,0.5,5.7,1.3,8.5c0,0.2,0,0.4,0.2,0.6
			c0.6,1.9,1.3,3.7,2.2,5.4c-0.2,0-0.3,0-0.5,0C49,26.2,47.7,20.5,48,14.2c0-0.2-0.3-0.2-0.3,0c-0.4,5.7,0.4,11.9,3.7,16.7
			c-0.7-0.2-1.1,0.9-0.4,1.2c0.5,0.2,1,0.2,1.4,0.2c0.3,0.4,0.6,0.7,1,1.1c-2.5-0.6-4.9-1.3-7.5-1.5c-0.2,0-0.5,0-0.7,0
			C42.3,23.9,43.5,15.6,45.6,7.7z M70.2,122.2c-0.1,0.5-0.2,1.1-0.3,1.6c-0.3-0.1-0.7-0.2-1-0.3c0.4-2.1,0.8-4.2,1.1-6.4
			c1.2,0.6,2.4,1.3,3.4,2.3c-0.2,1.9-0.5,3.8-0.6,5.6c-0.2-0.1-0.5-0.3-0.7-0.4c-0.5-0.2-1-0.4-1.4-0.6c0.1-0.6,0.2-1.2,0.3-1.8
			C70.9,121.8,70.3,121.8,70.2,122.2z M73,125.2c0,0-0.1,0-0.1-0.1c0.2-1.6,0.4-3.2,0.7-4.8c0-0.2,0.1-0.3,0.1-0.5
			c0.1,0.1,0.3,0.3,0.4,0.4C73.7,121.9,73.3,123.5,73,125.2z M70.1,116.2c0.1-0.4,0.1-0.8,0.2-1.2c0-0.2,0-0.3-0.1-0.3
			c0.3-1.2,0.5-2.5,0.6-3.7c0.7,0.2,1.4,0.4,2.1,0.6c0.5,0.2,1.1,0.4,1.6,0.7c-0.3,1.9-0.6,3.9-0.9,5.8
			C72.5,117.3,71.3,116.7,70.1,116.2z M74.4,118.8c-0.1-0.1-0.3-0.2-0.4-0.3c0.4-1.9,0.9-3.7,1.4-5.5c0.2,0.1,0.3,0.3,0.4,0.5
			C75.3,115.2,74.9,117,74.4,118.8z M81.3,94.3C80.1,94,79.2,93,78.4,92c0.3,0.5,0.6,0.9,1,1.3c0.5,0.6,1.2,1.1,1.9,1.3
			c-1.3,5.5-3.1,10.9-4.7,16.2c-0.1,0.3-0.2,0.7-0.3,1c-0.1-0.1-0.3-0.2-0.4-0.3c0.4-1.3,0.7-2.7,1-4c0.8-3.3,0.3-7.5,2.8-10.2
			c0.5-0.5-0.1-1.2-0.7-0.8c-2.4,1.7-2.7,5.4-3.2,8c-0.4,2.1-0.8,4.3-1.1,6.4c-1.2-0.4-2.5-0.7-3.8-0.8c0.2-1.8,0.4-3.7,0.7-5.5
			c0.6-4,1.4-7.9,2-11.9c0.5-3.9,0.1-7.9-0.1-11.8c1.5,1.6,2.8,3.3,4,5.1c0.1,0.2,0.3,0.5,0.4,0.7c-0.1,1.2-0.3,2.4-0.5,3.5
			c0,0.2,0.3,0.2,0.3,0.1c0.3-0.9,0.5-1.7,0.7-2.6c0.9,1.7,1.6,3.5,2.7,5c0.2,0.2,0.4,0.3,0.6,0.2C81.6,93.3,81.4,93.8,81.3,94.3z
			 M73.4,78.8c0-2.4,0.1-4.8,0.7-7.1c0.2-0.8-1-1.2-1.2-0.4c-0.5,2.3-0.7,4.6-0.7,6.9c-0.4,0.2-0.7,0.7-0.3,1.1
			c0.1,0.1,0.2,0.2,0.3,0.3c0.1,4.1,0.5,8.2,0.2,12.2c-0.4,6.1-2.5,12.2-2.9,18.3c-0.6,0-1.2,0-1.8,0c-0.1,0-0.2,0.2,0,0.2
			c0.6,0.1,1.2,0.2,1.7,0.3c-0.1,1.3,0,2.7,0.1,4c-0.1,0.1-0.1,0.2-0.2,0.3c0,0.3-0.1,0.6-0.1,0.9c-0.9-0.3-1.9-0.6-2.9-0.9
			c-0.4-0.1-0.6,0.5-0.2,0.6c1,0.3,2,0.7,3,1.1c-0.3,2.2-0.7,4.4-1.1,6.5c-1.8-0.3-3.7-0.1-5.5,0.5c-0.1,0-0.1,0.2,0,0.2
			c1.8-0.5,3.6-0.6,5.4-0.2c-0.4,2.1-0.8,4.3-1.3,6.4c-1,4.9-0.9,9.7-0.7,14.6c0,0.3,0.4,0.3,0.4,0c0.7-4.9,0.3-9.7,1.2-14.6
			c0.4-2.1,0.8-4.2,1.2-6.2c0.1,0,0.3,0.1,0.4,0.1c0.2,0.1,0.4,0.1,0.6,0.2c-1.1,6.4-1.8,13.1-1.8,19.5c0,0.3,0.4,0.3,0.5,0
			c1-6.4,1-12.9,1.9-19.3c0.7,0.3,1.5,0.6,2.2,1.1c0,0.6-0.1,1.2-0.1,1.8c-0.6,2.8-1.1,5.6-1.6,8.3c-1.4,7.9-2.8,15.6-4.7,23.3
			c-0.8-1.1-1.8-2-2.5-2.8c-1.7-1.8-3.6-3.2-5.9-4.2c-0.3-0.1-0.5,0.3-0.2,0.5c1.9,1.2,3.7,2.8,5.2,4.5c1.2,1.2,1.9,2.7,2.9,4.1
			c0,0.1-0.1,0.3-0.1,0.4c-0.9,3.3-2.7,6.2-3.3,9.6c-0.6,3.1-1.1,6.2-1.7,9.2c-0.3-0.5-0.7-1-1.1-1.5c-0.4-0.6-1.3,0.2-0.9,0.7
			c0.6,0.8,1.1,1.6,1.6,2.5c-0.1,0.6-0.3,1.3-0.4,1.9c-1.3,5.9-1.7,11.4-1.9,17.4c-0.1,3.3-0.4,6.7-0.1,10c0.3,2.8-1.2,5.9-1.8,8.6
			c-1.4,6.3-6.5,9.8-12,12.5c-1.9,0.9-4.3,1.3-5.6,3.1c-1.2,1.6-0.8,2.9-0.8,4.6c0,0-0.1,0.1-0.1,0.1c-0.2,0.1-0.3,0.3-0.2,0.5
			c2,7.7,2.4,15.6,2.5,23.5c0,0.3,0,0.5,0,0.8c-0.4-4.5-0.8-9-1.4-13.5c-0.5-3.7-1.6-7.2-3.3-10.5c-1.7-3.3-4.5-5.5-7.3-7.8
			c-6.5-5.6-9.8-14-12.1-22.1c-1.1-3.8-1.9-7.7-2.2-11.7c-0.5-4.8,0.4-9.9,0.2-14.7c-0.2-8.2-2.9-16.1-4-24.2
			c-1.1-8.8-1-17.9-1.5-26.7c-0.2-4-0.5-7.9-0.4-11.9c0.1-4-0.8-7.7-0.9-11.6C7,103.5,6.2,96.9,6.2,90.3c0-6.4,0-12.8,0.2-19.2
			c0.1-3.1,1.1-6.3,1.8-9.3c0.8-3.4,1.8-6.8,3.5-9.9c1.5-2.8,4.4-4.5,6.4-6.9c1.7-2,2.7-5.1,4.7-6.8c-0.1,0.3-0.2,0.6-0.2,0.9
			c0,0.1,0.1,0.1,0.1,0c0-0.4,0.1-0.8,0.3-1.1c0.3-0.2,0.5-0.4,0.8-0.5c0.4-0.2,0.5-0.6,0.3-1c2-1.8,5.4-2.8,7.4-3
			c2.5-0.2,5-0.3,7.5-0.4c0.1,0.1,0.1,0.3,0.2,0.4c0.4,0.9,1.7,0.4,1.7-0.4c1,0,1.9,0,2.9,0c4,0.1,7.5,1.1,11.4,2
			c0.1,0,0.2,0,0.3,0.1c0.1,0.1,0.2,0.2,0.2,0.4c0,0,0.1,0.1,0.1,0.1c-0.9-0.3-1.8-0.2-2.7,0.2c-0.2,0.1-0.3,0.3-0.3,0.5
			c-0.1,0-0.2,0-0.4,0c-0.7,0-0.8,1.1-0.1,1.1c1.5-0.1,3,0,4.4,0.1c1.3,0.9,2.4,2.4,3.3,3.7c-1.1-0.2-2.2-0.4-3.3-0.5
			c-0.6,0-0.6,0.8-0.1,0.9c1.5,0.2,2.8,0.4,4.1,0.8c0.1,0.1,0.1,0.2,0.2,0.3c1.5,2.6,1.9,5.5,1.8,8.4c-0.7-0.3-1.5-0.6-2.3-0.9
			c-4.7-1.5-9.1-2.8-14-1.4c-0.1,0-0.1,0.2,0,0.2c4.7-1,8.6,0.4,13,1.8c1.3,0.4,2.3,0.9,3.3,1.6c0,0.1,0,0.2,0,0.3
			c0,0.4,0.5,0.7,0.8,0.4c0,0,0-0.1,0.1-0.1c0.2,0.2,0.4,0.3,0.6,0.5c1,1,2.3,1.4,3.2,2.5c0.4,0.4,0.9,0,0.8-0.5
			c-0.6-1.6-1.7-1.8-3.1-2.7c-0.3-0.2-0.6-0.6-0.8-0.9c1.1-2.4-0.1-6.1-1.4-8.8c0.6,0.2,1.1,0.5,1.7,0.8c0.2,0.4,0.3,0.8,0.5,1.1
			c1.1,2.6,2.2,5.3,3,8c0.3,2.7,0.5,5.3,0.7,8c-0.5-0.2-1-0.5-1.5-0.7c0,0-0.1,0,0,0c0.5,0.3,1,0.6,1.6,0.9c0.2,1.6,0.3,3.3,0.5,4.9
			c0.1,0.6,1,0.5,1-0.1c0.1-1.3,0.2-2.6,0.1-3.9c1.5,0.9,3,2,4.4,3.1c0.1,2.5,0.2,5,0.6,7.5c0.1,0.4,0.8,0.5,0.9,0.1
			c0.4-1.8,0.5-3.8,0.5-5.8c0.5,0.5,1,1,1.5,1.6c0.1,0.8,0.1,1.6,0.1,2.3c0.1,2.4,0.1,4.8,0,7.1c-0.8-0.8-1.7-1.6-2.5-2.5
			c-0.5-0.5-1.4,0.2-0.9,0.8c1.1,1.1,2.3,2.2,3.3,3.3c-0.1,1.4-0.2,2.8-0.4,4.2C76.6,82.1,74.9,80.3,73.4,78.8z M83.2,79.9
			c0,1.9-0.1,3.7-0.3,5.6c-0.2,2-0.5,4-0.9,6c-0.6-2.3-1.8-4.5-3.3-6.6c0.1-1.2,0.2-2.4,0.2-3.5c0-0.3,0-0.7,0.1-1
			c1.2,1.4,2.3,2.9,2.7,4.8c0.1,0.3,0.6,0.5,0.8,0.2c0.9-1.6-0.7-3.5-1.6-4.7c-0.5-0.7-1.1-1.3-1.7-1.9c0.1-2.6,0.2-5.1,0-7.7
			c0-0.6-0.1-1.1-0.2-1.7c2.4,2.9,4,6.3,4.1,10.2C83,79.7,83.1,79.8,83.2,79.9z M83.1,74.1c-0.8-1.5-1.9-2.9-2.5-3.7
			c-0.6-0.8-1.2-1.5-1.8-2.2c-0.3-3-0.8-5.9-1.5-8.9c0.2,0.2,0.4,0.4,0.6,0.6c1.6,1.7,2.8,3.5,4,5.5C82.5,68.3,82.9,71.2,83.1,74.1z
			 M67.4,38.4c3.9,1.6,6.5,5.8,8.3,9.5c2,4,3.7,8.1,4.9,12.4c0.3,0.9,0.5,1.8,0.8,2.8c-1.2-1.7-2.7-3.3-4.3-4.7
			c-0.2-0.8-0.4-1.6-0.6-2.4c0.3-0.1,0.6-0.5,0.4-1c-0.3-0.8-0.6-1.5-1-2.2c0.1,0.1,0.1,0.1,0.2,0.2c0.3,0.3,0.7,0,0.7-0.3
			c-0.2-2.7-1.8-6-3.7-7.8c-1.9-1.8-3.8-4-6-5.4c-1.7-1.1-3.7-1.8-5.8-2.3c0-0.2,0-0.4,0-0.6c0.4,0.1,0.8,0.2,1.2,0.3
			c0.3,0.3,0.7,0.6,1.1,0.7c0.2,0,0.4-0.1,0.5-0.2C65.2,37.5,66.3,37.9,67.4,38.4z M62.4,28.1c-0.1,0.5-0.3,1.4-0.5,2.3
			c-0.1,0-0.1-0.1-0.2-0.2c0.1-1,0.2-2,0.3-2.9c0.3-2.8,0.6-5.5,1.6-8.2c0.4-1.1,0.8-2.1,1.2-3.2C64,20,63.2,24,62.4,28.1z"/>
	</g>
	<path class="st6" d="M76.5,88.7c-0.1,0.6-0.2,1.2-0.3,1.8c-1.9-1.9-4.1-3.5-6-4.6c-0.4-0.2-0.7,0.3-0.4,0.5c2,1.2,3.7,2.7,5.1,4.5
		c0.4,0.5,0.7,0.9,0.9,1.4c-0.2,0.7-0.3,1.4-0.5,2.1c-2.8-2.3-6.6-3.4-10.5-2.9c0,0,0,0.1,0,0.1c3.6-0.6,6.8,0.4,9.4,2.9
		c0.3,0.3,0.6,0.6,0.9,0.9c-0.2,0.8-0.3,1.5-0.4,2.3c-0.4,3.1-0.5,6.4-0.6,9.5c0,0.4,0.5,0.5,0.7,0.1c1.2-2.8,1-5.7,1.1-8.7
		c0-0.7,0.1-1.4,0.2-2.1c1,1.5,1.7,3.1,2.7,4.5c0.3,0.4,0.9,0,0.8-0.4c-0.6-2.2-1.8-4.1-3.3-5.6c0.1-0.5,0.2-1.1,0.3-1.6
		c0.7,1.4,1.3,2.7,2.3,3.9c0.4,0.5,1.2,0.1,1.1-0.5c-0.3-2-1.5-4-3-5.7c0.1-0.8,0.2-1.6,0.2-2.4C77.1,88.4,76.6,88.3,76.5,88.7z"/>
	<path class="st6" d="M63.3,157.9c0,1.1,0,2.3-0.4,3.3c0,0,0,0.1,0.1,0C63.3,160.2,63.3,159,63.3,157.9
		C63.4,157.9,63.3,157.9,63.3,157.9z"/>
	<path class="st6" d="M62,159.1c-0.6,2.3-1.2,4.5-1.6,6.8c-2.7-1.4-5.9-2.5-8.7-2.3c-0.3,0-0.3,0.4,0,0.4c2.7,0.2,5.6,1.6,7.9,2.8
		c0.2,0.1,0.4,0.2,0.6,0.3c-0.2,1.2-0.4,2.4-0.4,3.6c0,0.1,0.1,0.1,0.1,0c0.1-1.2,0.2-2.4,0.4-3.6c0.2,0.1,0.5,0.3,0.7,0.4
		c-0.7,2.2-1.5,4.5-2.2,6.7c-0.8-0.3-1.2,1-0.4,1.3c-0.7,2.4-1.4,4.7-2.1,7.1c-0.3-0.3-0.7-0.7-1-1c-0.5-0.4-1.1,0.4-0.6,0.9
		c0.5,0.4,0.9,0.9,1.4,1.3c-0.4,1.5-0.7,2.9-1,4.4c-0.4-0.3-0.9-0.6-1.2-0.8c-0.3-0.2-0.6,0.2-0.3,0.5c0.5,0.4,0.9,0.8,1.4,1.2
		c-0.2,0.9-0.3,1.8-0.4,2.6c-0.6-0.3-1.1-0.5-1.5-0.8c-0.3-0.2-0.7,0.3-0.3,0.5c0.6,0.3,1.2,0.6,1.8,1c-0.1,1.1-0.2,2.2-0.3,3.4
		c-1.7-1.2-3.3-2.3-4.8-3.8c-0.4-0.4-1.1,0.1-0.7,0.6c1.3,1.5,2.7,2.8,4.2,4c0.4,0.3,0.8,0.7,1.2,1.1c0,0.1,0,0.1,0,0.2
		c0,1.2-0.2,2.4-0.4,3.6c-0.3-0.3-0.7-0.5-1.1-0.7c-1.5-0.9-3.3-1.7-5.2-2.3c-1.6-1.6-5-1.8-6.7-3.1c-0.8-0.7-2.4,0.4-3.2,0.6
		c-1.7,0.6-3.1,0.6-4.9,0.3c-0.1,0-0.2,0.1-0.1,0.2c0.7,1.8,4.9,0.7,6.9,0c0.4,0.9,1.5,1.4,2.5,1.9c0,0.2,0.2,0.4,0.4,0.4
		c0.1,0,0.2,0,0.4,0c0.6,0.2,1.2,0.4,1.8,0.7c1,0.4,1.8,1.2,2.8,1.6c0.5,0.2,0.9-0.3,0.9-0.8c0-0.1,0-0.2,0-0.3
		c1.1,0.5,2.1,1.1,3.1,1.6c0.9,0.5,1.7,1.1,2.3,1.8c0,0.4,0,0.9,0,1.3c0.1,0.9,0.1,1.9,0.1,2.8c-1.2-0.7-2.5-1.2-3.8-1.7
		c-0.7-0.3-1.1,0.8-0.4,1.1c1.4,0.6,2.8,1.3,4.1,2.1c-0.1,1.3-0.2,2.6-0.2,4c-0.1,0-0.3,0.1-0.5,0.1c-1.4-1.6-3.7-2.7-5.3-3.5
		c-0.4-0.2-0.7,0.3-0.4,0.5c1.1,0.7,2.3,1.4,3.3,2.2c0.4,0.3,0.7,0.6,1,1c-1.3,0.2-2.5,0.2-3.8,0c-0.2,0-0.2,0.2,0,0.3
		c1.4,0.2,2.7,0.1,4,0c0.5,0.6,0.9,1.2,1.4,1.8c-0.1,1-0.1,2.1-0.3,3.1c-1.9,0.8-3.8,1.5-5.7,2c0,0,0,0,0,0c0.2-1,0.4-1.9,0.3-2.9
		c0-0.4-0.5-0.3-0.6,0c-0.8,1.7-1,3.7-1.6,5.4c-0.3,0.8-0.6,1.6-0.9,2.4c-0.7,0-1.3,0.1-2,0.1c0.7-1.7,1.4-3.4,1.8-5.1
		c0.1-0.2-0.3-0.4-0.4-0.2c-1,1.8-1.6,3.7-2.6,5.4c-0.1,0-0.3,0-0.4,0c-0.4,0.1-0.4,0.6-0.1,0.7c-0.8,1.3-1.6,2.5-2.4,3.8
		c-1.4,0-2.9-0.1-4.3-0.4c-0.6-0.1-0.8,1-0.2,1.1c1.2,0.2,2.5,0.4,3.8,0.4c-0.4,0.7,0.8,1.5,1.2,0.7c0.2-0.3,0.3-0.5,0.5-0.8
		c2.3-0.2,4.5-0.8,6.5-2c-0.1,0.2-0.3,0.4-0.4,0.7c-0.3,0.4,0.3,0.9,0.7,0.5c0.5-0.6,0.9-1.3,1.2-2c0.7-0.6,1.4-1.2,2.1-1.9
		c0.1-0.1,0.1-0.3,0-0.4c0.5-0.1,0.9-0.2,1.4-0.4c-0.4,0.7-0.8,1.3-1.3,2c-0.3,0.3,0.3,0.8,0.6,0.5c1.1-1.2,1.9-2.5,2.6-3.8
		c0.1-0.2,0.2-0.4,0.3-0.7c0.7-1.6,1.2-3.3,1.4-5.1c0.5-0.2,1.1-0.5,1.6-0.7c0.3-0.1,0.1-0.6-0.2-0.4c-0.4,0.2-0.9,0.4-1.3,0.6
		c0-0.2,0-0.3,0.1-0.5c0.2-2.4,0.1-4.8,0.3-7.3c0,0,0,0,0-0.1c0.1,0.1,0.2,0.2,0.3,0.3c1.4,1.3,1.9,3.3,3.3,4.5c0.4,0.3,0.9,0,1-0.5
		c0-1-0.5-2-1.1-2.9c0-0.1,0-0.2,0-0.2c0-3.4-1.2-6.5-3.6-8.7c0-0.4,0-0.8,0.1-1.1c0.1-0.9,0.2-1.8,0.3-2.7c0.8,0.7,1.7,1.2,2.6,1.6
		c0.5,0.2,1-0.4,0.7-0.8c-0.7-1.2-2-1.9-3.1-2.7c0.1-1.2,0.2-2.4,0.4-3.5c0.2,0.1,0.3,0.2,0.5,0.3c1.6,1,2.4,2.1,3.4,3.6
		c0.1,0.2,0.4,0.2,0.4-0.1c0-2.1-2.1-3.5-4.2-4.6c0.1-0.8,0.2-1.5,0.3-2.3c0,0,0.1,0.1,0.1,0.1c0.8,0.8,1.2,1.8,2,2.5
		c0.3,0.2,0.6,0.1,0.6-0.3c-0.1-1.3-1.3-2.4-2.6-3.4c0.2-1.4,0.5-2.9,0.7-4.3c0.3,0.4,0.7,0.8,1.1,1.1c0.9,0.9,2,2.2,3.3,2.5
		c0.3,0.1,0.7-0.3,0.4-0.6c-0.9-1.1-2.3-1.9-3.3-3c-0.4-0.4-0.8-0.9-1.2-1.3c0.6-2.6,1.2-5.1,1.9-7.7c0.5,0.3,1.1,0.6,1.6,0.8
		c0.6,0.4,1.5,0.9,2.2,0.6c0.2-0.1,0.3-0.4,0.2-0.6c-0.2-0.7-1.2-0.9-1.8-1.3c-0.6-0.3-1.2-0.6-1.8-0.9c0.6-2.3,1.2-4.5,1.9-6.8
		c0.7,0.5,1.4,1,2,1.6c1,1,0.7,1.9,1.1,3c0.1,0.2,0.4,0.3,0.6,0.2c2.9-1.3-1.8-5.1-2.9-5.8c-0.2-0.1-0.4-0.2-0.6-0.4
		c0.1-0.3,0.2-0.7,0.3-1c0-0.1-0.2-0.2-0.2-0.1c-0.1,0.3-0.2,0.7-0.3,1c-0.3-0.2-0.6-0.3-0.9-0.5c0.5-2.3,1.1-4.6,1.6-6.8
		C62.1,159.1,62,159,62,159.1z M43.1,228.4c-0.1,0.3,0,0.6,0.2,0.7c-0.5,0.2-1.1,0.5-1.6,0.6c-0.6,0.2-1.2,0.3-1.8,0.4
		c0.7-1.2,1.3-2.4,1.9-3.7c0.6,0,1.3,0,2,0C43.6,227.1,43.3,227.7,43.1,228.4z M46.6,227.2c-0.7,0.5-1.5,0.9-2.3,1.4
		c0.3-0.7,0.5-1.4,0.8-2.1c0.6,0,1.2,0,1.7-0.1C46.8,226.6,46.7,226.9,46.6,227.2z M51.5,223.8c-1.1,0.7-2.2,1.1-3.4,1.3
		c0.1-0.6,0.2-1.1,0.3-1.7c0-0.2-0.3-0.4-0.4-0.2c-0.4,0.6-0.6,1.3-0.8,2c-0.6,0.1-1.1,0.1-1.7,0.2c0.3-0.8,0.6-1.7,0.8-2.5
		c0.2-0.6,0.4-1.3,0.6-1.9c0.1,0.1,0.1,0.1,0.2,0.1c1.9-0.5,3.8-1.1,5.6-1.9C52.5,220.8,52.1,222.3,51.5,223.8z M55.9,209.4
		c-0.4-0.3-0.8-0.6-1.2-0.9c0-1-0.1-2-0.1-3.1C55.2,206.6,55.5,208,55.9,209.4z"/>
	<path class="st6" d="M35.9,250.8c-1.5,1.3-3,2.4-4.6,3.5c-0.3,0.2,0,0.7,0.3,0.7c2-0.5,3.6-1.9,5.1-3.3
		C37.2,251.2,36.5,250.3,35.9,250.8z"/>
	<path class="st6" d="M25,234.5c-0.3,0.2-0.4,0.3-0.6,0.6c-0.1,0.2-0.1,0.3-0.2,0.4c-0.4,0.3-0.1,0.9,0.4,0.7
		c0.2-0.1,0.4-0.3,0.5-0.5c0.1-0.2,0.1-0.3,0.3-0.4C26,235.1,25.6,234.2,25,234.5z"/>
	<path class="st6" d="M56.7,20.1c-0.1,0.3-0.2,0.5-0.3,0.8c0,0.1,0.1,0.1,0.2,0.1c0.1-0.3,0.2-0.5,0.3-0.8
		C56.9,20.1,56.8,20,56.7,20.1z"/>
	<path class="st6" d="M56.3,12c-0.3,0.1-0.1,0.6,0.2,0.5c0.5-0.2,1,0,1.4,0.4c0.3,0.3,0.5,1,1,1.1c0.1,0,0.2-0.1,0.3-0.1
		c0,0,0,0,0-0.1c0.1-0.1,0.1-0.3,0-0.4C58.6,12.3,57.5,11.4,56.3,12z"/>
	<path class="st6" d="M62.1,27.8C62,27.8,62.1,27.8,62.1,27.8C62.1,27.8,62.1,27.8,62.1,27.8z"/>
	<path class="st6" d="M50.8,16.6C50.8,16.6,50.8,16.6,50.8,16.6C50.9,16.6,50.8,16.5,50.8,16.6z"/>
</g>
</svg>
